<?xml version="1.0" encoding="utf-8"?>
<!-- Generator: Adobe Illustrator 21.0.0, SVG Export Plug-In . SVG Version: 6.00 Build 0)  -->
<svg version="1.1" id="Layer_1" xmlns="http://www.w3.org/2000/svg" xmlns:xlink="http://www.w3.org/1999/xlink" x="0px" y="0px"
	 viewBox="0 0 100 100" style="enable-background:new 0 0 100 100;" xml:space="preserve">
<style type="text/css">
	.st0{fill:#663434;stroke:#663434;stroke-miterlimit:10;}
	.st1{fill:#65B0ED;stroke:#6CAFE0;stroke-miterlimit:10;}
	.st2{fill:#DC498A;}
	.st3{stroke:#000000;stroke-miterlimit:10;}
</style>
<g>
	<g id="XMLID_1_">
		<g>
			<path class="st0" d="M78.5,46.6c0.7,5.3-1.2,13.2-5.6,17.7c0,0,0,0,0,0.1c0,0,0,0.1-0.1,0.1c-0.1,0.1-1.7,2.2-4.9,2.9
				c-0.6,0.2-1.2,0.2-1.7,0.2c-2.2,0-3.6-1.1-3.6-1.2l0,0c-0.3-0.2-0.6-0.3-1-0.3c-0.3,0.1-0.6,0.2-0.8,0.4c0,0.1-0.5,0.6-1.3,1.1
				l0,0c-0.2,0.1-0.4,0.2-0.7,0.4c-0.1,0-0.1,0.1-0.2,0.1c-0.2,0.1-0.4,0.2-0.7,0.3c-0.1,0.1-0.3,0.1-0.5,0.1s-0.4,0.1-0.6,0.1
				c-0.3,0.1-0.6,0.1-0.9,0.1c-0.1,0-0.2,0-0.2,0c-0.1,0-0.2,0-0.3,0c-3.2,0.1-4.9-1.6-5-1.6c-0.1-0.1-0.3-0.2-0.4-0.3l0,0
				c-0.1,0-0.3-0.1-0.4-0.1c-0.1,0-0.3,0-0.4,0.1l0,0c-0.2,0.1-0.3,0.2-0.4,0.3c-0.1,0.1-1.8,1.7-5,1.6c-0.1,0-0.2,0-0.3,0
				s-0.2,0-0.2,0c-0.3,0-0.7-0.1-0.9-0.1s-0.4-0.1-0.6-0.1c-0.2-0.1-0.3-0.1-0.5-0.1c-0.2-0.1-0.5-0.2-0.6-0.3
				c-0.1,0-0.1-0.1-0.2-0.1c-0.2-0.1-0.5-0.2-0.7-0.4l0,0c-0.8-0.5-1.3-1-1.3-1.1c-0.2-0.2-0.5-0.4-0.8-0.4c-0.1,0-0.1,0-0.2,0
				c-0.3,0-0.6,0.1-0.8,0.3c-0.1,0.1-1.4,1.2-3.7,1.2c-0.5,0-1.1-0.1-1.7-0.2c-3.2-0.8-4.8-2.8-4.9-3l-0.1-0.1c0,0,0-0.1-0.1-0.1
				c-1.7-1.5-2.9-3.4-3.7-5.2c1.1,0.2,2.8,0.2,4.7-0.9c1.9-1.1,4.1-1.1,6,0c1.8,1,2.7,2.2,4.7,2.8c3.8,1.3,6.4-1.4,9.2-3.4
				c1.5-1.1,3.2-1.7,5.1-1.7c2.8,0.1,5.1,1.5,7.5,2.7c3.3,1.5,7.7,1.1,10.6-1c3.1-2.3,4.2-6.3,6.5-9.3C77.2,47.5,77.8,47,78.5,46.6z
				"/>
			<path class="st1" d="M39.6,86.5l-0.5,2.7c-4-0.7-6.2-1.7-7-2.1l-4.6-18.7c0.9,0.5,1.9,1,3.2,1.3c0.4,0.1,0.7,0.2,1,0.2l0,0h0.1
				c1,0.1,1.9,0.1,2.7-0.1h0.1c0.2-0.1,0.5-0.1,0.7-0.2h0.1c0.2-0.1,0.4-0.1,0.6-0.2c0,0,0,0,0.1,0c0.4-0.2,0.8-0.3,1.1-0.5
				c0.5,0.4,1.2,0.9,2,1.3l-1.1,1.9H38c-0.5,0.1-0.9,0.6-0.9,1.1l1.6,12.4C38.8,86.1,39.2,86.4,39.6,86.5z"/>
			<path class="st1" d="M51.3,70.5l-1.7,2.3c-0.6,0-1,0.4-1,1v12.4c0,0.6,0.4,1,1,1V90c-4.3,0-7.8-0.4-10.4-0.8l0.5-2.7
				c0.1,0,0.1,0,0.2,0H40c0.5-0.1,0.9-0.6,0.9-1.1L39.1,73c-0.1-0.5-0.5-0.9-1-0.9l1.1-1.9c1.1,0.5,2.4,1,4,1.1c0.2,0,0.5,0,0.7,0
				c0.1,0,0.2,0,0.2,0c0.1,0,0.2,0,0.3,0c0.3,0,0.5,0,0.8-0.1h0.1c2-0.3,3.4-1,4.2-1.6C50,69.9,50.6,70.2,51.3,70.5z"/>
			<path class="st1" d="M71.7,68.4l-4.6,18.7c-0.9,0.4-3.1,1.4-7.1,2.1l-0.4-2.7c0.4-0.1,0.8-0.4,0.8-0.8L62,73.3
				c0.1-0.5-0.3-1-0.9-1.1c-0.2,0-0.5,0-0.6,0.1L57.9,71c1.8-0.5,3.2-1.3,4-2.1c0.3,0.2,0.7,0.4,1.1,0.5h0.1
				c0.2,0.1,0.4,0.1,0.6,0.2h0.1c0.2,0.1,0.5,0.1,0.7,0.2h0.1c0.8,0.2,1.7,0.2,2.7,0.1c0.1,0,0.1,0,0.2,0c0,0,0,0,0.1,0
				c0.3-0.1,0.7-0.1,1-0.2C69.8,69.4,70.8,68.9,71.7,68.4z"/>
			<path class="st1" d="M57.9,70.9l2.6,1.3C60.2,72.4,60,72.7,60,73l-1.6,12.4c-0.1,0.6,0.3,1.1,0.9,1.1h0.1c0.1,0,0.1,0,0.2,0
				l0.4,2.7c-2.6,0.5-6.1,0.8-10.4,0.8c0,0,0,0-0.1,0v-2.8c0.6,0,1-0.4,1-1V73.8c0-0.6-0.4-1-1-1l1.7-2.3c0.7,0.3,1.6,0.5,2.5,0.7
				h0.1c0.2,0,0.5,0.1,0.8,0.1c0.1,0,0.2,0,0.3,0s0.2,0,0.2,0c0.2,0,0.4,0,0.7,0C56.6,71.2,57.3,71.1,57.9,70.9z"/>
			<path class="st2" d="M41.8,16.8c0.7,0.7,1.2,1.5,1.4,2.5c-1.4,0.6-2.9,1.1-4.5,1.6c-2.3,0.7-4.6,1.5-6.8,2.7
				c-1.1-2.3-0.7-5.2,1.3-7C35.6,14.3,39.5,14.4,41.8,16.8z"/>
			<path class="st3" d="M80.4,43.9c1.7,5.8-0.2,15.9-5.6,21.8l-5.5,22.2c0,0.4-0.2,0.7-0.5,1c-0.2,0.1-5.5,3.5-19.2,3.5
				s-19-3.4-19.2-3.5c-0.2-0.2-0.4-0.4-0.5-0.7l-5.5-22.4c-4-3.7-5.6-9-5.4-12.7c0.2-3.8,2.9-8.8,7.6-11.7c-0.7-1.8-1-4-1-4l2.4-0.3
				c0.1,0.8,0.5,2.8,1.1,3.8c7.9-0.2,21.9-2,33.7-10.6c0.1-0.2,0.1-0.5,0.1-0.7l2.4,0.4C71.5,32.6,78.7,38,80.4,43.9z M72.9,64.3
				c4.4-4.6,6.3-12.4,5.6-17.7c-0.7,0.4-1.3,0.9-1.7,1.5c-2.2,3-3.4,7-6.5,9.3c-2.9,2.2-7.3,2.6-10.6,1c-2.5-1.1-4.7-2.6-7.5-2.7
				c-1.9,0-3.6,0.6-5.1,1.7c-2.8,2-5.5,4.7-9.2,3.4c-2-0.7-2.9-1.8-4.7-2.8c-1.9-1.1-4.1-1.1-6,0s-3.6,1.1-4.7,0.9
				c0.8,1.9,2,3.7,3.7,5.2c0,0,0,0.1,0.1,0.1l0.1,0.1c0.1,0.1,1.7,2.2,4.9,3c0.6,0.2,1.2,0.2,1.7,0.2c2.2,0,3.6-1.1,3.7-1.2
				c0.2-0.2,0.5-0.3,0.8-0.3c0.1,0,0.1,0,0.2,0c0.3,0.1,0.6,0.2,0.8,0.4c0.1,0.1,0.5,0.6,1.3,1.1l0,0c0.2,0.1,0.4,0.2,0.7,0.4
				c0.1,0,0.1,0.1,0.2,0.1c0.2,0.1,0.4,0.2,0.6,0.3c0.1,0.1,0.3,0.1,0.5,0.1s0.4,0.1,0.6,0.1c0.3,0.1,0.6,0.1,0.9,0.1
				c0.1,0,0.2,0,0.2,0c0.1,0,0.2,0,0.3,0c3.2,0.1,4.9-1.6,5-1.6c0.1-0.1,0.3-0.2,0.4-0.3l0,0c0.1,0,0.3-0.1,0.4-0.1
				c0.1,0,0.3,0,0.4,0.1l0,0c0.2,0.1,0.3,0.2,0.4,0.3c0.1,0.1,1.8,1.7,5,1.6c0.1,0,0.2,0,0.3,0s0.2,0,0.2,0c0.3,0,0.6-0.1,0.9-0.1
				c0.2,0,0.4-0.1,0.6-0.1c0.2-0.1,0.3-0.1,0.5-0.1c0.2-0.1,0.5-0.2,0.7-0.3c0.1,0,0.1-0.1,0.2-0.1c0.2-0.1,0.5-0.2,0.7-0.4l0,0
				c0.8-0.5,1.3-1,1.3-1.1c0.2-0.2,0.5-0.4,0.8-0.4c0.4-0.1,0.7,0.1,1,0.3l0,0c0.1,0.1,1.4,1.2,3.6,1.2c0.5,0,1.1-0.1,1.7-0.2
				C71,66.5,72.7,64.5,72.9,64.3C72.8,64.4,72.8,64.4,72.9,64.3C72.8,64.3,72.8,64.3,72.9,64.3z M67.1,87.1l4.6-18.7
				c-0.9,0.5-1.9,1-3.2,1.3c-0.4,0.1-0.7,0.2-1,0.2c0,0,0,0-0.1,0s-0.1,0-0.2,0c-1,0.1-1.9,0.1-2.7-0.1h-0.1
				c-0.2-0.1-0.5-0.1-0.7-0.2h-0.1c-0.2-0.1-0.4-0.1-0.6-0.2c0,0,0,0-0.1,0c-0.4-0.2-0.8-0.3-1.1-0.5c-0.9,0.8-2.2,1.6-4,2.1
				c-0.6,0.2-1.3,0.3-2,0.3c-0.2,0-0.5,0-0.7,0c-0.1,0-0.2,0-0.2,0c-0.1,0-0.2,0-0.3,0c-0.3,0-0.5,0-0.8-0.1h-0.1
				c-1-0.1-1.8-0.4-2.5-0.7c-0.7-0.3-1.3-0.6-1.7-0.9c-0.8,0.6-2.3,1.3-4.2,1.6h-0.1c-0.2,0-0.5,0.1-0.8,0.1c-0.1,0-0.2,0-0.3,0
				s-0.2,0-0.2,0c-0.2,0-0.4,0-0.7,0c-1.6-0.1-2.9-0.5-4-1.1c-0.8-0.4-1.5-0.9-2-1.3c-0.3,0.2-0.7,0.4-1.1,0.5c0,0,0,0-0.1,0
				c-0.2,0.1-0.4,0.1-0.6,0.2h-0.1c-0.2,0.1-0.5,0.1-0.7,0.2h-0.1c-0.8,0.2-1.7,0.2-2.7,0.1h-0.1l0,0c-0.3-0.1-0.7-0.1-1-0.2
				c-1.3-0.3-2.3-0.8-3.2-1.3l4.6,18.7c0.8,0.4,3,1.4,7,2.1c2.6,0.5,6.1,0.8,10.4,0.8c0,0,0,0,0.1,0c4.3,0,7.7-0.3,10.4-0.8
				C64,88.5,66.2,87.5,67.1,87.1z"/>
			<path class="st3" d="M61.8,17.3c2.9,3,4.2,7.8,3.4,12.5l-2.4-0.4c0.3-1.7,0.2-3.7-0.2-5.6c-0.4,0.6-1,1.2-1.8,1.6
				c-1,0.4-1.9,0.4-2.8,0.4c-0.8,0-1.5,0-2.1,0.3c-0.8,0.4-1.6,0.9-2,1.5c-0.3,0.4-0.6,0.9-0.9,1.5c-0.5,0.9-1,1.8-1.8,2.5
				c-1.5,1.3-3.6,1.5-5.6,0.4c-1.6-0.8-2.9-0.9-4.1,0c-0.9,0.7-1.7,1.6-2.5,2.8c-1.2,1.7-3.2,3.4-5.5,3.4c-0.7,0-1.3-0.2-2-0.5
				c-0.8-0.4-1.4-0.9-2-1.4s-1.1-0.9-1.7-1.1c0,0.5,0,1.1,0.1,1.6l-2.4,0.3c-0.2-1.8-0.1-3.8,0.4-5.6c0.7-2.6,2.2-5.1,4.1-6.7
				c-1.8-3.3-1.2-7.5,1.6-10.2c0.2-0.2,0.5-0.4,0.8-0.6c-1.3-2.9-4.6-4.3-4.6-4.3c-0.6-0.2-0.9-1-0.7-1.6c0.2-0.6,1-0.9,1.6-0.7
				c0.2,0.1,4,1.7,5.8,5.4c3.1-1.2,6.7-0.5,9.1,2.1c0.8,0.9,1.4,1.9,1.8,3c1.1-0.7,2.1-1.6,2.9-2.7c0.7-1,1.1-2.6,1-3.8
				c0-0.4,0.1-0.8,0.5-1.1c0.4-0.2,0.8-0.3,1.2-0.1C54,11.7,58.5,13.9,61.8,17.3z M43.2,19.2c-0.3-0.9-0.8-1.8-1.4-2.5
				c-2.3-2.4-6.1-2.5-8.6-0.2c-1.9,1.9-2.4,4.7-1.3,7c2.1-1.2,4.5-2,6.8-2.7C40.3,20.4,41.8,19.9,43.2,19.2z"/>
			<path class="st0" d="M62.6,23.9c0.5,1.9,0.5,3.9,0.2,5.6c0,0.2-0.1,0.5-0.1,0.7C50.9,38.8,36.9,40.6,29,40.8c-0.6-1-1-3-1.1-3.8
				c-0.1-0.5-0.1-1-0.1-1.6c0.6,0.2,1.1,0.6,1.7,1.1c0.6,0.4,1.2,1,2,1.4c0.6,0.3,1.3,0.5,2,0.5c2.3,0,4.3-1.8,5.5-3.4
				c0.8-1.2,1.6-2.2,2.5-2.8c1.2-0.8,2.5-0.8,4.1,0c2,1.1,4.1,0.9,5.6-0.4c0.8-0.7,1.3-1.6,1.8-2.5c0.3-0.5,0.6-1,0.9-1.5
				c0.5-0.6,1.2-1.2,2-1.5C56.5,26,57.2,26,58,26c0.9,0,1.8,0,2.8-0.4C61.6,25.1,62.2,24.5,62.6,23.9z"/>
			<path d="M61.1,72.2c0.6,0.1,0.9,0.6,0.9,1.1l-1.6,12.4c-0.1,0.4-0.4,0.8-0.8,0.8c-0.1,0-0.1,0-0.2,0h-0.1
				c-0.6-0.1-0.9-0.6-0.9-1.1L60,73c0-0.3,0.2-0.6,0.5-0.7C60.6,72.2,60.9,72.1,61.1,72.2z"/>
			<path d="M50.6,73.8v12.4c0,0.6-0.4,1-1,1s-1-0.4-1-1V73.8c0-0.6,0.4-1,1-1C50.1,72.8,50.6,73.2,50.6,73.8z"/>
			<path d="M40.7,85.4c0.1,0.6-0.3,1.1-0.9,1.1h-0.1c-0.1,0-0.1,0-0.2,0c-0.4-0.1-0.8-0.4-0.8-0.8l-1.6-12.4c-0.1-0.5,0.3-1,0.9-1.1
				h0.1c0.5,0,0.9,0.4,1,0.9L40.7,85.4z"/>
		</g>
	</g>
</g>
</svg>
