<?xml version="1.0" encoding="utf-8"?>
<!-- Generator: Adobe Illustrator 21.0.0, SVG Export Plug-In . SVG Version: 6.00 Build 0)  -->
<svg version="1.1" id="Layer_1" xmlns="http://www.w3.org/2000/svg" xmlns:xlink="http://www.w3.org/1999/xlink" x="0px" y="0px"
	 viewBox="0 0 323 324" style="enable-background:new 0 0 323 324;" xml:space="preserve">
<style type="text/css">
	.st0{opacity:0.5;}
</style>
<g class="st0">
	<g>
		<path d="M54.2,77.8v12.4c0,0.6-0.4,1-1,1s-1-0.4-1-1V77.8c0-0.6,0.4-1,1-1S54.2,77.2,54.2,77.8z M64.7,76.1
			c-0.6-0.1-1,0.3-1.1,0.9L62,89.4c-0.1,0.5,0.3,1,0.9,1.1c0,0,0.1,0,0.1,0c0.5,0,0.9-0.4,1-0.9l1.6-12.4
			C65.6,76.7,65.2,76.2,64.7,76.1z M41.6,76.1c-0.5,0.1-0.9,0.6-0.9,1.1l1.6,12.4c0.1,0.5,0.5,0.9,1,0.9c0,0,0.1,0,0.1,0
			c0.5-0.1,0.9-0.6,0.9-1.1L42.7,77C42.6,76.4,42.1,76,41.6,76.1z M78.4,69.7l-5.5,22.2c0,0.4-0.2,0.7-0.5,1
			c-0.2,0.1-5.5,3.5-19.2,3.5S34.2,93,34,92.8c-0.2-0.2-0.4-0.4-0.5-0.7l-5.6-22.4c-4-3.7-5.6-9-5.4-12.7c0.2-3.8,2.9-8.8,7.6-11.7
			c-0.7-1.8-1-4-1-4c-0.2-1.8-0.1-3.8,0.4-5.6c0.7-2.6,2.2-5.1,4.1-6.7c-1.8-3.3-1.2-7.5,1.6-10.2c0.2-0.2,0.5-0.4,0.7-0.6
			c-1.3-2.9-4.6-4.3-4.6-4.3c-0.6-0.3-0.9-1-0.7-1.6c0.3-0.6,1-0.9,1.6-0.7c0.2,0.1,4,1.7,5.8,5.4c3.1-1.2,6.7-0.5,9.1,2.1
			c0.8,0.9,1.4,1.9,1.8,3c1.1-0.7,2.1-1.6,2.9-2.7c0.7-1,1.1-2.6,1-3.8c0-0.4,0.1-0.8,0.5-1.1c0.3-0.2,0.8-0.3,1.2-0.1
			c3.1,1.4,7.6,3.6,10.9,7c2.9,3,4.2,7.8,3.4,12.5C75.1,36.6,82.3,42,84,47.9C85.7,53.7,83.8,63.8,78.4,69.7z M66.2,27.9
			c-0.4,0.6-1,1.2-1.8,1.6c-0.9,0.4-1.9,0.4-2.8,0.4c-0.8,0-1.5,0-2.1,0.3c-0.8,0.4-1.6,0.9-2,1.5c-0.4,0.4-0.6,0.9-0.9,1.5
			c-0.5,0.9-1,1.8-1.8,2.5c-1.5,1.3-3.6,1.4-5.6,0.4c-1.6-0.8-2.9-0.9-4.1,0c-0.9,0.7-1.6,1.6-2.5,2.8c-1.2,1.7-3.2,3.4-5.5,3.4
			c-0.7,0-1.3-0.2-2-0.5c-0.8-0.4-1.4-0.9-2-1.4c-0.6-0.5-1.1-0.9-1.7-1.1c0,0.5,0,1.1,0.1,1.6c0.1,0.8,0.5,2.8,1.1,3.8
			c7.9-0.2,21.9-2,33.7-10.6C66.7,32.3,66.7,30,66.2,27.9z M35.5,27.6c2.1-1.3,4.5-2,6.7-2.7c1.6-0.5,3.1-1,4.5-1.6
			c-0.3-0.9-0.7-1.8-1.4-2.5c-2.3-2.4-6.1-2.5-8.6-0.2C34.9,22.4,34.4,25.3,35.5,27.6z M29.8,68.2C29.8,68.2,29.9,68.3,29.8,68.2
			c0.1,0.1,0.1,0.2,0.2,0.2c0.1,0.1,1.7,2.2,4.9,3c0.6,0.2,1.2,0.2,1.7,0.2c2.2,0,3.6-1.1,3.7-1.2c0,0,0,0,0,0l0,0
			c0.3-0.2,0.6-0.3,1-0.3c0.3,0,0.6,0.2,0.8,0.4c0.1,0.1,0.5,0.6,1.3,1.1c0,0,0,0,0,0c0.2,0.1,0.4,0.3,0.7,0.4
			c0.1,0,0.1,0.1,0.2,0.1c0.2,0.1,0.4,0.2,0.7,0.3c0.1,0,0.3,0.1,0.5,0.1c0.2,0.1,0.4,0.1,0.6,0.2c0.3,0.1,0.6,0.1,0.9,0.1
			c0.1,0,0.2,0,0.2,0c0.1,0,0.2,0,0.3,0c3.2,0.1,4.9-1.6,5-1.6c0.1-0.1,0.3-0.2,0.4-0.3c0,0,0,0,0,0c0.1,0,0.3-0.1,0.4-0.1
			c0.1,0,0.3,0,0.4,0.1c0,0,0,0,0,0c0.1,0.1,0.3,0.1,0.4,0.3c0.1,0.1,1.8,1.7,5,1.6c0.1,0,0.2,0,0.3,0c0.1,0,0.2,0,0.2,0
			c0.3,0,0.6-0.1,0.9-0.1c0.2,0,0.4-0.1,0.6-0.2c0.1,0,0.3-0.1,0.5-0.1c0.2-0.1,0.4-0.2,0.7-0.3c0.1,0,0.1-0.1,0.2-0.1
			c0.3-0.1,0.5-0.2,0.7-0.4c0,0,0,0,0,0c0.8-0.5,1.3-1,1.3-1.1c0.2-0.2,0.5-0.4,0.8-0.4c0.4-0.1,0.7,0.1,1,0.3l0,0
			c0.1,0.1,1.4,1.2,3.7,1.2c0.5,0,1.1-0.1,1.7-0.2c3.1-0.8,4.8-2.8,4.9-3c0,0,0,0,0.1-0.1c0,0,0,0,0-0.1c4.4-4.6,6.3-12.4,5.6-17.7
			c-0.7,0.4-1.3,0.9-1.7,1.5c-2.2,3-3.4,7-6.5,9.3c-2.9,2.2-7.3,2.6-10.5,1c-2.5-1.1-4.7-2.6-7.5-2.7c-1.9,0-3.6,0.5-5.1,1.7
			c-2.8,2-5.5,4.7-9.2,3.4c-2-0.7-2.9-1.8-4.7-2.8c-1.9-1.1-4.1-1.1-6,0c-1.9,1.1-3.6,1.1-4.7,0.9C26.9,64.8,28.1,66.7,29.8,68.2z
			 M75.3,72.3c-0.9,0.5-1.9,1-3.2,1.3c-0.3,0.1-0.7,0.1-1,0.2c0,0,0,0-0.1,0c-0.1,0-0.1,0-0.2,0c-1,0.1-1.9,0.1-2.7-0.1
			c0,0-0.1,0-0.1,0c-0.2,0-0.5-0.1-0.7-0.2c0,0-0.1,0-0.1,0c-0.2-0.1-0.4-0.1-0.6-0.2c0,0,0,0-0.1,0c-0.4-0.2-0.8-0.3-1.1-0.5
			c-1.1,1-3.2,2.2-6,2.4c-0.2,0-0.4,0-0.7,0c-0.1,0-0.2,0-0.2,0c-0.1,0-0.2,0-0.3,0c-0.3,0-0.5,0-0.7-0.1c0,0-0.1,0-0.1,0
			c-2-0.3-3.4-1-4.2-1.6c-0.8,0.6-2.3,1.3-4.2,1.6c0,0-0.1,0-0.1,0c-0.2,0-0.5,0-0.7,0.1c-0.1,0-0.2,0-0.3,0c-0.1,0-0.2,0-0.2,0
			c-0.2,0-0.4,0-0.7,0c-2.8-0.2-4.9-1.4-6-2.4c-0.3,0.2-0.7,0.4-1.1,0.5c0,0,0,0-0.1,0c-0.2,0.1-0.4,0.1-0.6,0.2c0,0-0.1,0-0.1,0
			c-0.2,0.1-0.5,0.1-0.7,0.2c0,0-0.1,0-0.1,0c-0.8,0.1-1.7,0.2-2.7,0.1c-0.1,0-0.1,0-0.2,0c0,0,0,0-0.1,0c-0.3,0-0.7-0.1-1-0.2
			c-1.3-0.3-2.3-0.8-3.2-1.3L35.7,91c1.4,0.7,6.6,2.9,17.5,2.9c10.8,0,16-2.2,17.4-2.9L75.3,72.3z"/>
	</g>
	<g>
		<path d="M270,186v12.4c0,0.6-0.4,1-1,1s-1-0.4-1-1V186c0-0.6,0.4-1,1-1S270,185.4,270,186z M280.5,184.3c-0.6-0.1-1,0.3-1.1,0.9
			l-1.6,12.4c-0.1,0.5,0.3,1,0.9,1.1c0,0,0.1,0,0.1,0c0.5,0,0.9-0.4,1-0.9l1.6-12.4C281.5,184.9,281.1,184.4,280.5,184.3z
			 M257.4,184.3c-0.5,0.1-0.9,0.6-0.9,1.1l1.6,12.4c0.1,0.5,0.5,0.9,1,0.9c0,0,0.1,0,0.1,0c0.5-0.1,0.9-0.6,0.9-1.1l-1.6-12.4
			C258.5,184.6,258,184.2,257.4,184.3z M294.2,177.9l-5.5,22.2c0,0.4-0.2,0.7-0.5,1c-0.2,0.1-5.5,3.5-19.2,3.5
			c-13.7,0-19-3.4-19.2-3.5c-0.2-0.2-0.4-0.4-0.5-0.7l-5.6-22.4c-4-3.7-5.6-9-5.4-12.7c0.2-3.8,2.9-8.8,7.6-11.7c-0.7-1.8-1-4-1-4
			c-0.2-1.8-0.1-3.8,0.4-5.6c0.7-2.6,2.2-5.1,4.1-6.7c-1.8-3.3-1.2-7.5,1.6-10.2c0.2-0.2,0.5-0.4,0.7-0.6c-1.3-2.9-4.6-4.3-4.6-4.3
			c-0.6-0.3-0.9-1-0.7-1.6c0.3-0.6,0.9-0.9,1.6-0.7c0.2,0.1,4,1.7,5.8,5.4c3.1-1.2,6.7-0.5,9.1,2.1c0.8,0.9,1.4,1.9,1.8,3
			c1.1-0.7,2.1-1.6,2.9-2.7c0.7-1,1.1-2.6,1-3.8c0-0.4,0.1-0.8,0.5-1.1c0.3-0.2,0.8-0.3,1.2-0.1c3.1,1.4,7.6,3.6,10.9,7
			c2.9,3,4.2,7.8,3.4,12.5c6.3,2.8,13.5,8.2,15.2,14.1C301.5,161.9,299.7,172,294.2,177.9z M282,136.1c-0.4,0.6-1,1.2-1.8,1.6
			c-0.9,0.4-1.9,0.4-2.8,0.4c-0.8,0-1.5,0-2.1,0.3c-0.8,0.4-1.6,0.9-2,1.5c-0.4,0.4-0.6,0.9-0.9,1.5c-0.5,0.9-1,1.8-1.8,2.5
			c-1.5,1.3-3.6,1.4-5.6,0.4c-1.6-0.8-2.9-0.9-4.1,0c-0.9,0.7-1.6,1.6-2.5,2.8c-1.2,1.7-3.2,3.4-5.5,3.4c-0.7,0-1.3-0.2-2-0.5
			c-0.8-0.4-1.4-0.9-2-1.4c-0.6-0.5-1.1-0.9-1.7-1.1c0,0.5,0,1.1,0.1,1.6c0.1,0.8,0.5,2.8,1.1,3.8c7.9-0.2,21.9-2,33.7-10.6
			C282.5,140.5,282.5,138.2,282,136.1z M251.4,135.8c2.1-1.3,4.5-2,6.7-2.7c1.6-0.5,3.1-1,4.5-1.6c-0.3-0.9-0.7-1.8-1.4-2.5
			c-2.3-2.4-6.1-2.5-8.6-0.2C250.7,130.6,250.2,133.5,251.4,135.8z M245.6,176.4C245.7,176.4,245.7,176.5,245.6,176.4
			c0.1,0.1,0.1,0.2,0.2,0.2c0.1,0.1,1.7,2.2,4.9,3c0.6,0.2,1.2,0.2,1.7,0.2c2.2,0,3.6-1.1,3.7-1.2c0,0,0,0,0,0l0,0
			c0.3-0.2,0.6-0.3,1-0.3c0.3,0,0.6,0.2,0.8,0.4c0.1,0.1,0.5,0.6,1.3,1.1c0,0,0,0,0,0c0.2,0.1,0.4,0.3,0.7,0.4
			c0.1,0,0.1,0.1,0.2,0.1c0.2,0.1,0.4,0.2,0.7,0.3c0.1,0,0.3,0.1,0.5,0.1c0.2,0.1,0.4,0.1,0.6,0.2c0.3,0.1,0.6,0.1,0.9,0.1
			c0.1,0,0.2,0,0.2,0c0.1,0,0.2,0,0.3,0c3.2,0.1,4.9-1.6,5-1.6c0.1-0.1,0.3-0.2,0.4-0.3c0,0,0,0,0,0c0.1,0,0.3-0.1,0.4-0.1
			c0.1,0,0.3,0,0.4,0.1c0,0,0,0,0,0c0.1,0.1,0.3,0.1,0.4,0.3c0.1,0.1,1.8,1.7,5,1.6c0.1,0,0.2,0,0.3,0c0.1,0,0.2,0,0.2,0
			c0.3,0,0.6-0.1,0.9-0.1c0.2,0,0.4-0.1,0.6-0.2c0.1,0,0.3-0.1,0.5-0.1c0.2-0.1,0.4-0.2,0.7-0.3c0.1,0,0.1-0.1,0.2-0.1
			c0.3-0.1,0.5-0.2,0.7-0.4c0,0,0,0,0,0c0.8-0.5,1.3-1,1.3-1.1c0.2-0.2,0.5-0.4,0.8-0.4c0.4-0.1,0.7,0.1,1,0.3l0,0
			c0.1,0.1,1.4,1.2,3.7,1.2c0.5,0,1.1-0.1,1.7-0.2c3.1-0.8,4.8-2.8,4.9-3c0,0,0,0,0.1-0.1c0,0,0,0,0-0.1c4.4-4.6,6.3-12.4,5.6-17.7
			c-0.7,0.4-1.3,0.9-1.7,1.5c-2.2,3-3.4,7-6.5,9.3c-2.9,2.2-7.3,2.6-10.6,1.1c-2.5-1.1-4.7-2.6-7.5-2.7c-1.9,0-3.6,0.6-5.1,1.7
			c-2.8,2-5.5,4.7-9.2,3.4c-2-0.7-2.9-1.8-4.7-2.8c-1.9-1.1-4.1-1.1-6,0c-1.9,1.1-3.6,1.1-4.7,0.9
			C242.7,173,243.9,174.9,245.6,176.4z M291.1,180.5c-0.9,0.5-1.9,1-3.2,1.3c-0.3,0.1-0.7,0.1-1,0.2c0,0,0,0-0.1,0
			c-0.1,0-0.1,0-0.1,0c-1,0.1-1.9,0.1-2.7-0.1c0,0-0.1,0-0.1,0c-0.2,0-0.5-0.1-0.7-0.2c0,0-0.1,0-0.1,0c-0.2-0.1-0.4-0.1-0.6-0.2
			c0,0,0,0-0.1,0c-0.4-0.2-0.8-0.3-1.1-0.5c-1.1,1-3.2,2.2-6,2.4c-0.2,0-0.4,0-0.7,0c-0.1,0-0.2,0-0.2,0c-0.1,0-0.2,0-0.3,0
			c-0.3,0-0.5,0-0.7-0.1c0,0-0.1,0-0.1,0c-2-0.3-3.4-1-4.2-1.6c-0.8,0.6-2.3,1.3-4.2,1.6c0,0-0.1,0-0.1,0c-0.2,0-0.5,0-0.7,0.1
			c-0.1,0-0.2,0-0.3,0c-0.1,0-0.2,0-0.2,0c-0.2,0-0.4,0-0.7,0c-2.8-0.2-4.9-1.4-6-2.4c-0.3,0.2-0.7,0.4-1.1,0.5c0,0,0,0-0.1,0
			c-0.2,0.1-0.4,0.1-0.6,0.2c0,0-0.1,0-0.1,0c-0.2,0.1-0.5,0.1-0.7,0.2c0,0-0.1,0-0.1,0c-0.8,0.1-1.7,0.2-2.7,0.1
			c-0.1,0-0.1,0-0.1,0c0,0,0,0-0.1,0c-0.3,0-0.7-0.1-1-0.2c-1.3-0.3-2.3-0.8-3.2-1.3l4.6,18.7c1.4,0.7,6.6,2.9,17.5,2.9
			c10.8,0,16-2.2,17.4-2.9L291.1,180.5z"/>
	</g>
	<g>
		<path d="M163.7,295.4v12.4c0,0.6-0.4,1-1,1c-0.6,0-1-0.4-1-1v-12.4c0-0.6,0.4-1,1-1C163.3,294.4,163.7,294.9,163.7,295.4z
			 M174.2,293.8c-0.6-0.1-1,0.3-1.1,0.9l-1.6,12.4c-0.1,0.5,0.3,1,0.9,1.1c0,0,0.1,0,0.1,0c0.5,0,0.9-0.4,1-0.9l1.6-12.4
			C175.2,294.3,174.8,293.8,174.2,293.8z M151.1,293.8c-0.5,0.1-0.9,0.6-0.9,1.1l1.6,12.4c0.1,0.5,0.5,0.9,1,0.9c0,0,0.1,0,0.1,0
			c0.5-0.1,0.9-0.6,0.9-1.1l-1.6-12.4C152.2,294.1,151.7,293.7,151.1,293.8z M187.9,287.3l-5.5,22.2c0,0.4-0.2,0.7-0.5,1
			c-0.2,0.1-5.5,3.5-19.2,3.5c-13.7,0-19-3.4-19.2-3.5c-0.2-0.2-0.4-0.4-0.5-0.7l-5.6-22.4c-4-3.7-5.6-9-5.4-12.7
			c0.2-3.8,2.9-8.8,7.6-11.7c-0.7-1.8-1-4-1-4c-0.2-1.8-0.1-3.8,0.4-5.6c0.7-2.6,2.2-5.1,4.1-6.7c-1.8-3.3-1.2-7.5,1.6-10.2
			c0.2-0.2,0.5-0.4,0.7-0.6c-1.3-2.9-4.6-4.3-4.6-4.3c-0.6-0.3-0.9-1-0.7-1.6c0.3-0.6,0.9-0.9,1.6-0.7c0.2,0.1,4,1.7,5.8,5.4
			c3.1-1.2,6.7-0.5,9.1,2.1c0.8,0.9,1.4,1.9,1.8,3c1.1-0.7,2.1-1.6,2.9-2.7c0.7-1,1.1-2.6,1-3.8c0-0.4,0.1-0.8,0.5-1.1
			c0.3-0.2,0.8-0.3,1.2-0.1c3.1,1.4,7.6,3.6,10.9,7c2.9,3,4.2,7.8,3.4,12.5c6.3,2.8,13.5,8.2,15.2,14.1
			C195.2,271.4,193.4,281.4,187.9,287.3z M175.7,245.5c-0.4,0.6-1,1.2-1.8,1.6c-0.9,0.4-1.9,0.4-2.8,0.4c-0.8,0-1.5,0-2.1,0.3
			c-0.8,0.4-1.6,0.9-2,1.5c-0.4,0.4-0.6,0.9-0.9,1.5c-0.5,0.9-1,1.8-1.8,2.5c-1.5,1.3-3.6,1.4-5.6,0.4c-1.6-0.8-2.9-0.9-4.1,0
			c-0.9,0.7-1.6,1.6-2.5,2.8c-1.2,1.7-3.2,3.4-5.5,3.4c-0.7,0-1.3-0.2-2-0.5c-0.8-0.4-1.4-0.9-2-1.4c-0.6-0.5-1.1-0.9-1.7-1.1
			c0,0.5,0,1.1,0.1,1.6c0.1,0.8,0.5,2.8,1.1,3.8c7.9-0.2,21.9-2,33.7-10.6C176.2,249.9,176.2,247.7,175.7,245.5z M145.1,245.2
			c2.1-1.3,4.5-2,6.7-2.7c1.6-0.5,3.1-1,4.5-1.6c-0.3-0.9-0.7-1.8-1.4-2.5c-2.3-2.4-6.1-2.5-8.6-0.2
			C144.4,240,143.9,242.9,145.1,245.2z M139.3,285.8C139.4,285.9,139.4,285.9,139.3,285.8c0.1,0.1,0.1,0.2,0.2,0.2
			c0.1,0.1,1.7,2.2,4.9,3c0.6,0.2,1.2,0.2,1.7,0.2c2.2,0,3.6-1.1,3.7-1.2c0,0,0,0,0,0l0,0c0.3-0.2,0.6-0.3,1-0.3
			c0.3,0,0.6,0.2,0.8,0.5c0.1,0.1,0.5,0.6,1.3,1.1c0,0,0,0,0,0c0.2,0.1,0.4,0.3,0.7,0.4c0.1,0,0.1,0.1,0.2,0.1
			c0.2,0.1,0.4,0.2,0.7,0.3c0.1,0,0.3,0.1,0.5,0.1c0.2,0.1,0.4,0.1,0.6,0.1c0.3,0.1,0.6,0.1,0.9,0.1c0.1,0,0.2,0,0.2,0
			c0.1,0,0.2,0,0.3,0c3.2,0.1,4.9-1.6,5-1.6c0.1-0.1,0.3-0.2,0.4-0.3c0,0,0,0,0,0c0.1,0,0.3-0.1,0.4-0.1c0.1,0,0.3,0,0.4,0.1
			c0,0,0,0,0,0c0.1,0.1,0.3,0.1,0.4,0.3c0.1,0.1,1.8,1.7,5,1.6c0.1,0,0.2,0,0.3,0c0.1,0,0.2,0,0.2,0c0.3,0,0.6-0.1,0.9-0.1
			c0.2,0,0.4-0.1,0.6-0.1c0.1,0,0.3-0.1,0.5-0.1c0.2-0.1,0.4-0.2,0.7-0.3c0.1,0,0.1-0.1,0.2-0.1c0.3-0.1,0.5-0.2,0.7-0.4
			c0,0,0,0,0,0c0.8-0.5,1.3-1,1.3-1.1c0.2-0.2,0.5-0.4,0.8-0.5c0.4-0.1,0.7,0.1,1,0.3l0,0c0.1,0.1,1.4,1.2,3.7,1.2
			c0.5,0,1.1-0.1,1.7-0.2c3.1-0.8,4.8-2.8,4.9-3c0,0,0,0,0.1-0.1c0,0,0,0,0-0.1c4.4-4.6,6.3-12.4,5.6-17.7c-0.7,0.4-1.3,0.9-1.7,1.5
			c-2.2,3-3.4,6.9-6.5,9.3c-2.9,2.2-7.3,2.6-10.6,1c-2.5-1.1-4.7-2.6-7.5-2.7c-1.9,0-3.6,0.5-5.1,1.7c-2.8,2-5.5,4.7-9.2,3.4
			c-2-0.7-2.9-1.8-4.7-2.8c-1.9-1.1-4.1-1.1-6,0c-1.9,1.1-3.6,1.1-4.7,0.9C136.4,282.5,137.6,284.3,139.3,285.8z M184.8,290
			c-0.9,0.5-1.9,1-3.2,1.3c-0.3,0.1-0.7,0.1-1,0.2c0,0,0,0-0.1,0c-0.1,0-0.1,0-0.2,0c-1,0.1-1.9,0.1-2.7-0.1c0,0-0.1,0-0.1,0
			c-0.2,0-0.5-0.1-0.7-0.2c0,0-0.1,0-0.1,0c-0.2-0.1-0.4-0.1-0.6-0.2c0,0,0,0-0.1,0c-0.4-0.2-0.8-0.3-1.1-0.5c-1.1,1-3.2,2.2-6,2.4
			c-0.2,0-0.4,0-0.7,0c-0.1,0-0.2,0-0.2,0c-0.1,0-0.2,0-0.3,0c-0.3,0-0.5,0-0.7-0.1c0,0-0.1,0-0.1,0c-2-0.3-3.4-1-4.2-1.6
			c-0.8,0.6-2.3,1.3-4.2,1.6c0,0-0.1,0-0.1,0c-0.2,0-0.5,0-0.7,0.1c-0.1,0-0.2,0-0.3,0c-0.1,0-0.2,0-0.2,0c-0.2,0-0.4,0-0.7,0
			c-2.8-0.2-4.9-1.4-6-2.4c-0.3,0.2-0.7,0.4-1.1,0.5c0,0,0,0-0.1,0c-0.2,0.1-0.4,0.1-0.6,0.2c0,0-0.1,0-0.1,0
			c-0.2,0.1-0.5,0.1-0.7,0.2c0,0-0.1,0-0.1,0c-0.8,0.1-1.7,0.2-2.7,0.1c-0.1,0-0.1,0-0.1,0c0,0,0,0-0.1,0c-0.3,0-0.7-0.1-1-0.2
			c-1.3-0.3-2.3-0.8-3.2-1.3l4.6,18.7c1.4,0.7,6.6,2.9,17.5,2.9c10.8,0,16-2.2,17.4-2.9L184.8,290z"/>
	</g>
	<g>
		<path d="M163.7,75.5V88c0,0.6-0.4,1-1,1s-1-0.4-1-1V75.5c0-0.6,0.4-1,1-1S163.7,75,163.7,75.5z M174.2,73.9
			c-0.5-0.1-1,0.3-1.1,0.9l-1.6,12.4c-0.1,0.5,0.3,1,0.9,1.1c0,0,0.1,0,0.1,0c0.5,0,0.9-0.4,1-0.9l1.6-12.4
			C175.2,74.4,174.8,73.9,174.2,73.9z M151.1,73.9c-0.5,0.1-0.9,0.6-0.9,1.1l1.6,12.4c0.1,0.5,0.5,0.9,1,0.9c0,0,0.1,0,0.1,0
			c0.5-0.1,0.9-0.6,0.9-1.1l-1.6-12.4C152.2,74.2,151.7,73.8,151.1,73.9z M187.9,67.4l-5.5,22.2c0,0.4-0.2,0.7-0.5,1
			c-0.2,0.1-5.5,3.5-19.2,3.5c-13.7,0-19-3.4-19.2-3.5c-0.2-0.2-0.4-0.4-0.5-0.7l-5.6-22.4c-4-3.7-5.6-9-5.4-12.7
			c0.2-2.9,1.8-6.5,4.6-9.3c-0.3-0.6-0.5-1.3-0.5-2c0-1.7,1.1-3.2,2.6-3.8c-0.1-0.4-0.1-0.6-0.1-0.6c-0.2-1.8-0.1-3.8,0.4-5.6
			c0.8-2.8,2.3-5.3,4.3-6.9c0.1-0.1,0.3-0.2,0.4-0.3c-0.2-0.5-0.3-1-0.3-1.6c0-2.3,1.9-4.1,4.1-4.1c1.6,0,3,0.9,3.7,2.3
			c0.2-0.1,0.4-0.1,0.5-0.2c1.5-0.5,3-1,4.4-1.6c0.6-1.5,2.1-2.6,3.8-2.6c0,0,0.1,0,0.1,0c0.4-0.4,0.8-0.8,1.1-1.3
			c0.7-1,1.1-2.6,1-3.8c0-0.4,0.1-0.8,0.5-1.1c0.3-0.2,0.8-0.3,1.2-0.1c3.1,1.4,7.6,3.6,10.9,7c2.1,2.1,3.3,5.2,3.6,8.5
			c2.2,0.1,3.9,1.9,3.9,4.1c0,0.6-0.2,1.2-0.4,1.8c5.2,3,10.2,7.4,11.5,12.2C195.2,51.5,193.4,61.5,187.9,67.4z M150.5,69L150.5,69
			L150.5,69 M141.3,34.1c-0.1,0.4-0.2,0.9-0.3,1.3c1.3-0.1,3.5-0.4,6.2-0.9c0.4-0.1,0.9,0.2,0.9,0.6c0.1,0.4-0.2,0.9-0.6,0.9
			c-3,0.5-5.3,0.8-6.6,0.9c0,0.6,0,1.2,0.1,1.7c0,0.1,0.1,0.4,0.2,0.7c1.6,0.3,2.9,1.6,3.2,3.2c3.8-0.2,10.7-0.8,17.9-3.3
			c0-0.2-0.1-0.4-0.1-0.5c0-2.3,1.9-4.1,4.2-4.1c1.3,0,2.5,0.6,3.2,1.6c2.1-1.1,4.2-2.5,6.2-4c0,0,0,0,0,0c0,0,0-0.1,0-0.1
			c0.5-2.4,0.5-5.4-0.6-8c-1.1,1.1-2.3,2.1-3.6,3.1c-0.1,0.1-0.3,0.1-0.5,0.1c-0.2,0-0.5-0.1-0.7-0.3c-0.3-0.4-0.2-0.9,0.2-1.1
			c1.4-1,2.7-2.1,3.8-3.3c-0.4-0.6-0.8-1.2-1.3-1.7c-2.5-2.6-5.8-4.4-8.5-5.7c-0.2,1.3-0.7,2.5-1.4,3.5c-0.2,0.3-0.4,0.6-0.7,0.9
			c1,0.8,1.6,1.9,1.6,3.2c0,2.3-1.9,4.1-4.1,4.1c-1.9,0-3.5-1.3-4-3c-1.2,0.4-2.3,0.8-3.5,1.2c-2.8,0.9-5.5,1.8-7.7,3.5
			C143.3,29.7,142,31.7,141.3,34.1z M134.5,54.9c-0.1,1.1,0.1,2.4,0.5,3.8c1.5-0.2,2.8,0.5,4.1,1.2c1.2,0.7,2.3,1.3,3.4,1
			c0.7-0.2,1.4-0.6,2.1-1c1.6-0.9,3.6-2.1,5.7-0.5c0.9,0.6,1.4,1.5,1.8,2.3c0.8,1.3,1.3,2.1,2.6,2.1c1.6,0,2.3-0.9,3.1-2.8
			c0.9-2,2.2-4.3,4.7-5.5c3.1-1.5,6.2-0.9,9.2,1.8l0.5,0.4c2.2,2,4,3.3,5.9,2.2c1.6-0.9,2-2.7,2.5-4.5c0.2-0.7,0.4-1.4,0.6-2.1
			c0.4-1,1.3-2.3,2.6-2.8c0.8-0.3,1.7-0.2,2.4,0.3c0.6,0.4,1,1,1.3,1.5c0.6,1,0.9,1.2,1.5,1.1c1.4-0.3,2.2-2.7,2.6-4.4
			c-0.1-1-0.2-2-0.5-2.8c-1.3-4.6-7.4-9.9-14.5-12.8c-2,1.6-4.2,3-6.4,4.2c0.1,0.4,0.2,0.8,0.2,1.2c0,2.3-1.9,4.1-4.1,4.1
			c-1.5,0-2.8-0.8-3.6-2.1c-7.5,2.5-14.5,3.2-18.5,3.4c-0.4,1.9-2.1,3.4-4.1,3.4c-0.7,0-1.3-0.2-1.9-0.5
			C136,49.6,134.6,52.6,134.5,54.9z M184.8,70.1c-0.9,0.5-1.9,1-3.2,1.3c-2.9,0.7-5.2,0-6.6-0.8c-1,0.9-3,2.2-6,2.4
			c-2.9,0.2-5.1-0.8-6.3-1.7c-1.1,0.8-3.1,1.7-5.6,1.7c-0.2,0-0.4,0-0.7,0c-2.8-0.2-4.9-1.4-6-2.4c-1.3,0.8-3.7,1.6-6.6,0.8
			c-1.3-0.3-2.3-0.8-3.2-1.3l4.6,18.7c1.4,0.7,6.6,2.9,17.5,2.9c10.8,0,16-2.2,17.4-2.9L184.8,70.1z M154.3,34.5c0.1,0,0.1,0,0.2,0
			c4.3-1.1,8.2-2.6,11.5-4.2c0.4-0.2,0.6-0.7,0.4-1.1s-0.7-0.6-1.1-0.4c-3.2,1.6-7,3-11.2,4.1c-0.4,0.1-0.7,0.6-0.6,1
			C153.7,34.3,154,34.5,154.3,34.5z M152.1,54.9c2.3,0,4.2-1.9,4.2-4.1s-1.9-4.2-4.2-4.2c-2.3,0-4.1,1.9-4.1,4.2
			C147.9,53.1,149.8,54.9,152.1,54.9z M179.2,46.7c2.3,0,4.1-1.9,4.1-4.1s-1.9-4.1-4.1-4.1c-2.3,0-4.2,1.9-4.2,4.1
			C175.1,44.9,176.9,46.7,179.2,46.7z"/>
	</g>
	<g>
		<path d="M54.2,184.7v12.4c0,0.6-0.4,1-1,1s-1-0.4-1-1v-12.4c0-0.6,0.4-1,1-1S54.2,184.1,54.2,184.7z M64.7,183
			c-0.5-0.1-1,0.3-1.1,0.9L62,196.2c-0.1,0.5,0.3,1,0.9,1.1c0,0,0.1,0,0.1,0c0.5,0,0.9-0.4,1-0.9l1.6-12.4
			C65.6,183.6,65.2,183.1,64.7,183z M41.6,183c-0.5,0.1-0.9,0.6-0.9,1.1l1.6,12.4c0.1,0.5,0.5,0.9,1,0.9c0,0,0.1,0,0.1,0
			c0.5-0.1,0.9-0.6,0.9-1.1l-1.6-12.4C42.7,183.3,42.1,182.9,41.6,183z M78.4,176.5l-5.5,22.2c0,0.4-0.2,0.7-0.5,1
			c-0.2,0.1-5.5,3.5-19.2,3.5c-13.7,0-19-3.4-19.2-3.5c-0.2-0.2-0.4-0.4-0.5-0.7l-5.6-22.4c-4-3.7-5.6-9-5.4-12.7
			c0.2-2.9,1.8-6.5,4.6-9.3c-0.3-0.6-0.5-1.3-0.5-2c0-1.7,1.1-3.2,2.6-3.8c-0.1-0.4-0.1-0.6-0.1-0.6c-0.2-1.8-0.1-3.8,0.4-5.6
			c0.8-2.8,2.3-5.3,4.3-6.9c0.1-0.1,0.3-0.2,0.4-0.3c-0.2-0.5-0.3-1-0.3-1.6c0-2.3,1.9-4.1,4.1-4.1c1.6,0,3,0.9,3.7,2.3
			c0.2-0.1,0.4-0.1,0.5-0.2c1.5-0.5,3-1,4.4-1.6c0.6-1.5,2.1-2.6,3.8-2.6c0,0,0.1,0,0.1,0c0.4-0.4,0.8-0.8,1.1-1.3
			c0.7-1,1.1-2.6,1-3.8c0-0.4,0.1-0.8,0.5-1.1s0.8-0.3,1.2-0.1c3.1,1.4,7.6,3.6,10.9,7c2.1,2.1,3.3,5.2,3.6,8.5
			c2.2,0.1,3.9,1.9,3.9,4.1c0,0.6-0.2,1.2-0.4,1.8c5.2,3,10.2,7.4,11.5,12.2C85.7,160.6,83.8,170.7,78.4,176.5z M41,178.2L41,178.2
			L41,178.2 M31.8,143.2c-0.1,0.4-0.2,0.9-0.3,1.3c1.3-0.1,3.5-0.4,6.2-0.9c0.4-0.1,0.8,0.2,0.9,0.6c0.1,0.4-0.2,0.9-0.6,0.9
			c-3,0.5-5.3,0.8-6.6,0.9c0,0.6,0,1.2,0.1,1.7c0,0.1,0.1,0.4,0.2,0.7c1.6,0.3,2.9,1.6,3.2,3.2c3.8-0.2,10.7-0.8,17.9-3.3
			c0-0.2-0.1-0.4-0.1-0.5c0-2.3,1.9-4.1,4.2-4.1c1.3,0,2.5,0.6,3.2,1.6c2.1-1.1,4.2-2.5,6.2-4c0,0,0,0,0,0c0,0,0-0.1,0-0.1
			c0.5-2.4,0.5-5.4-0.6-8c-1.1,1.1-2.3,2.1-3.6,3.1c-0.1,0.1-0.3,0.1-0.5,0.1c-0.2,0-0.5-0.1-0.7-0.3c-0.3-0.4-0.2-0.9,0.2-1.1
			c1.4-1,2.7-2.1,3.8-3.3c-0.4-0.6-0.8-1.2-1.3-1.7c-2.5-2.6-5.8-4.4-8.5-5.7c-0.2,1.3-0.7,2.5-1.4,3.5c-0.2,0.3-0.4,0.6-0.7,0.9
			c1,0.8,1.6,1.9,1.6,3.2c0,2.3-1.9,4.1-4.2,4.1c-1.9,0-3.5-1.3-4-3c-1.2,0.4-2.3,0.8-3.5,1.2c-2.8,0.9-5.5,1.8-7.7,3.5
			C33.7,138.8,32.4,140.9,31.8,143.2z M25,164.1c-0.1,1.1,0.1,2.4,0.5,3.8c1.5-0.2,2.8,0.5,4,1.2c1.2,0.7,2.3,1.3,3.4,1
			c0.7-0.2,1.4-0.6,2.1-1c1.6-0.9,3.6-2.1,5.7-0.4c0.8,0.6,1.4,1.5,1.8,2.3c0.8,1.3,1.3,2.1,2.6,2.1c1.6,0,2.3-0.9,3.1-2.8
			c0.9-2,2.2-4.3,4.7-5.5c3.1-1.5,6.2-0.9,9.2,1.8l0.5,0.4c2.2,2,4,3.3,5.9,2.2c1.6-0.9,2-2.7,2.5-4.5c0.2-0.7,0.4-1.4,0.6-2.1
			c0.4-1,1.3-2.3,2.6-2.8c0.8-0.3,1.7-0.2,2.4,0.3c0.6,0.4,1,1,1.3,1.5c0.6,1,0.9,1.2,1.5,1.1c1.4-0.3,2.2-2.7,2.6-4.4
			c-0.1-1-0.2-2-0.5-2.8c-1.3-4.6-7.4-9.9-14.5-12.8c-2,1.6-4.2,3-6.4,4.2c0.1,0.4,0.2,0.8,0.2,1.2c0,2.3-1.9,4.1-4.1,4.1
			c-1.5,0-2.8-0.8-3.6-2.1c-7.5,2.5-14.5,3.2-18.5,3.4c-0.4,1.9-2.1,3.4-4.1,3.4c-0.7,0-1.3-0.2-1.9-0.5
			C26.5,158.7,25.1,161.8,25,164.1z M75.3,179.2c-0.9,0.5-1.9,1-3.2,1.3c-2.9,0.7-5.2,0-6.6-0.8c-1,0.9-3,2.2-6,2.4
			c-2.9,0.2-5.1-0.8-6.3-1.7c-1.1,0.8-3.1,1.7-5.6,1.7c-0.2,0-0.4,0-0.7,0c-2.8-0.2-4.9-1.4-6-2.4c-1.3,0.8-3.7,1.6-6.6,0.8
			c-1.3-0.3-2.3-0.8-3.2-1.3l4.6,18.7c1.4,0.7,6.6,2.9,17.5,2.9c10.8,0,16-2.2,17.4-2.9L75.3,179.2z M44.8,143.7c0.1,0,0.1,0,0.2,0
			c4.3-1.1,8.2-2.6,11.5-4.2c0.4-0.2,0.6-0.7,0.4-1.1s-0.7-0.6-1.1-0.4c-3.2,1.6-7,3-11.2,4.1c-0.4,0.1-0.7,0.6-0.6,1
			C44.1,143.4,44.5,143.7,44.8,143.7z M42.5,164.1c2.3,0,4.2-1.9,4.2-4.1c0-2.3-1.9-4.1-4.2-4.1s-4.1,1.9-4.1,4.1
			C38.4,162.2,40.2,164.1,42.5,164.1z M69.7,155.9c2.3,0,4.2-1.9,4.2-4.1c0-2.3-1.9-4.1-4.2-4.1s-4.2,1.9-4.2,4.1
			C65.5,154,67.4,155.9,69.7,155.9z"/>
	</g>
	<g>
		<path d="M270,294.1v12.4c0,0.6-0.4,1-1,1c-0.6,0-1-0.4-1-1v-12.4c0-0.6,0.4-1,1-1C269.5,293.1,270,293.5,270,294.1z M280.5,292.4
			c-0.5-0.1-1,0.3-1.1,0.9l-1.6,12.4c-0.1,0.5,0.3,1,0.9,1.1c0,0,0.1,0,0.1,0c0.5,0,0.9-0.4,1-0.9l1.6-12.4
			C281.5,293,281.1,292.5,280.5,292.4z M257.4,292.4c-0.5,0.1-0.9,0.6-0.9,1.1l1.6,12.4c0.1,0.5,0.5,0.9,1,0.9c0,0,0.1,0,0.1,0
			c0.5-0.1,0.9-0.6,0.9-1.1l-1.6-12.4C258.5,292.8,258,292.4,257.4,292.4z M294.2,286l-5.5,22.2c0,0.4-0.2,0.7-0.5,1
			c-0.2,0.1-5.5,3.5-19.2,3.5c-13.7,0-19-3.4-19.2-3.5c-0.2-0.2-0.4-0.4-0.5-0.7l-5.6-22.4c-4-3.7-5.6-9-5.4-12.7
			c0.2-2.9,1.8-6.5,4.6-9.3c-0.3-0.6-0.5-1.3-0.5-2c0-1.7,1.1-3.2,2.6-3.8c-0.1-0.4-0.1-0.6-0.1-0.6c-0.2-1.8-0.1-3.8,0.4-5.6
			c0.8-2.8,2.3-5.3,4.3-6.9c0.1-0.1,0.3-0.2,0.4-0.3c-0.2-0.5-0.3-1-0.3-1.6c0-2.3,1.9-4.2,4.1-4.2c1.6,0,3,0.9,3.7,2.3
			c0.2-0.1,0.4-0.1,0.5-0.2c1.5-0.5,3-1,4.4-1.6c0.6-1.5,2.1-2.6,3.8-2.6c0,0,0.1,0,0.1,0c0.4-0.4,0.8-0.8,1.1-1.3
			c0.7-1,1.1-2.6,1-3.8c0-0.4,0.1-0.8,0.5-1.1s0.8-0.3,1.2-0.1c3.1,1.4,7.6,3.6,10.9,7c2.1,2.1,3.3,5.2,3.6,8.5
			c2.2,0.1,3.9,1.9,3.9,4.1c0,0.6-0.2,1.2-0.4,1.8c5.2,3,10.2,7.4,11.5,12.2C301.5,270.1,299.7,280.1,294.2,286z M256.8,287.6
			L256.8,287.6L256.8,287.6 M247.6,252.6c-0.1,0.4-0.2,0.9-0.3,1.3c1.3-0.1,3.5-0.4,6.2-0.9c0.4-0.1,0.8,0.2,0.9,0.6
			c0.1,0.4-0.2,0.9-0.6,0.9c-3,0.5-5.3,0.8-6.6,0.9c0,0.6,0,1.2,0.1,1.7c0,0.1,0.1,0.4,0.2,0.7c1.6,0.3,2.9,1.6,3.2,3.2
			c3.8-0.2,10.7-0.8,17.9-3.3c0-0.2-0.1-0.4-0.1-0.5c0-2.3,1.9-4.2,4.2-4.2c1.3,0,2.5,0.6,3.2,1.6c2.1-1.1,4.2-2.5,6.2-4
			c0,0,0,0,0,0c0,0,0-0.1,0-0.1c0.5-2.4,0.5-5.4-0.6-8c-1.1,1.1-2.3,2.1-3.6,3.1c-0.1,0.1-0.3,0.1-0.5,0.1c-0.2,0-0.5-0.1-0.7-0.3
			c-0.3-0.4-0.2-0.9,0.2-1.1c1.4-1,2.7-2.1,3.8-3.3c-0.4-0.6-0.8-1.2-1.3-1.7c-2.5-2.6-5.8-4.4-8.5-5.7c-0.2,1.3-0.7,2.5-1.4,3.5
			c-0.2,0.3-0.4,0.6-0.7,0.9c1,0.8,1.6,1.9,1.6,3.2c0,2.3-1.9,4.1-4.2,4.1c-1.9,0-3.5-1.3-4-3c-1.2,0.4-2.3,0.8-3.5,1.2
			c-2.8,0.9-5.5,1.8-7.7,3.5C249.6,248.3,248.3,250.3,247.6,252.6z M240.8,273.5c-0.1,1.1,0.1,2.4,0.5,3.8c1.5-0.2,2.8,0.5,4.1,1.2
			c1.2,0.6,2.3,1.3,3.4,1c0.7-0.2,1.4-0.6,2.1-1c1.6-0.9,3.6-2.1,5.7-0.5c0.9,0.6,1.4,1.5,1.8,2.3c0.8,1.3,1.3,2.1,2.6,2.1
			c1.6,0,2.3-0.9,3.1-2.8c0.9-2,2.2-4.3,4.7-5.5c3.1-1.5,6.2-0.9,9.2,1.8l0.5,0.4c2.2,2,4,3.3,5.9,2.2c1.6-0.9,2-2.7,2.5-4.5
			c0.2-0.7,0.4-1.4,0.6-2.1c0.4-1,1.3-2.3,2.6-2.8c0.8-0.3,1.7-0.2,2.4,0.3c0.6,0.4,1,1,1.3,1.5c0.6,1,0.9,1.2,1.5,1.1
			c1.4-0.3,2.2-2.7,2.6-4.4c-0.1-1-0.2-2-0.5-2.8c-1.3-4.6-7.4-9.9-14.5-12.8c-2,1.6-4.2,3-6.4,4.2c0.1,0.4,0.2,0.8,0.2,1.2
			c0,2.3-1.9,4.1-4.1,4.1c-1.5,0-2.8-0.8-3.6-2.1c-7.5,2.5-14.5,3.2-18.5,3.4c-0.4,1.9-2.1,3.4-4.1,3.4c-0.7,0-1.3-0.2-1.9-0.5
			C242.3,268.2,240.9,271.2,240.8,273.5z M291.1,288.7c-0.9,0.5-1.9,1-3.2,1.3c-2.9,0.7-5.2,0-6.6-0.8c-1,0.9-3,2.2-6,2.4
			c-2.9,0.2-5.1-0.8-6.3-1.7c-1.1,0.8-3.1,1.7-5.6,1.7c-0.2,0-0.4,0-0.7,0c-2.8-0.2-4.9-1.4-6-2.4c-1.3,0.8-3.7,1.6-6.6,0.8
			c-1.3-0.3-2.3-0.8-3.2-1.3l4.6,18.7c1.4,0.7,6.6,2.9,17.5,2.9c10.8,0,16-2.2,17.4-2.9L291.1,288.7z M260.6,253.1
			c0.1,0,0.1,0,0.2,0c4.3-1.1,8.2-2.6,11.5-4.2c0.4-0.2,0.6-0.7,0.4-1.1c-0.2-0.4-0.7-0.6-1.1-0.4c-3.2,1.6-7,3-11.2,4.1
			c-0.4,0.1-0.7,0.6-0.6,1C260,252.9,260.3,253.1,260.6,253.1z M258.4,273.5c2.3,0,4.1-1.9,4.1-4.1c0-2.3-1.9-4.1-4.1-4.1
			s-4.1,1.9-4.1,4.1C254.2,271.7,256.1,273.5,258.4,273.5z M285.5,265.3c2.3,0,4.1-1.9,4.1-4.1s-1.9-4.1-4.1-4.1s-4.1,1.9-4.1,4.1
			C281.4,263.5,283.2,265.3,285.5,265.3z"/>
	</g>
	<g>
		<path d="M270.4,77.4v12.4c0,0.6-0.4,1-1,1s-1-0.4-1-1V77.4c0-0.6,0.4-1,1-1S270.4,76.9,270.4,77.4z M280.9,75.8
			c-0.6-0.1-1,0.3-1.1,0.9L278.2,89c-0.1,0.5,0.3,1.1,0.9,1.1c0,0,0.1,0,0.1,0c0.5,0,0.9-0.4,1-0.9l1.6-12.4
			C281.9,76.4,281.5,75.9,280.9,75.8z M294.7,69.3l-5.5,22.2c0,0.4-0.2,0.7-0.5,1c-0.2,0.1-5.5,3.5-19.2,3.5
			c-13.7,0-19-3.4-19.2-3.5c-0.2-0.2-0.4-0.4-0.5-0.7l-5.6-22.5c-7.6-9.4-4.2-25.8,3.8-33.7c0,0,0,0,0,0c-0.3-1-0.5-2.1-0.5-3.3
			c0-4.7,2.9-7.9,8-8.9c0,0,0-0.1,0-0.1c0-5.9,3.8-8.2,6.3-9.7c2.4-1.5,2.6-1.8,2-3c-0.2-0.4-0.2-0.9,0.1-1.2
			c0.3-0.4,0.7-0.6,1.1-0.5c8.5,1,18.4,5.4,18.4,14.5c0,0.1,0,0.1,0,0.2c5.1,1.2,8,4.3,8,8.9c0,1.2-0.2,2.3-0.5,3.3
			C298.9,43.5,302.2,59.9,294.7,69.3z M269.4,71.7L269.4,71.7L269.4,71.7C269.4,71.7,269.4,71.7,269.4,71.7z M257.9,23.3
			c0,2.8,4.9,4.8,11.6,4.8c6.7,0,11.6-2,11.6-4.8c0-8.2-10.2-11-14.5-11.9c0.1,2-1.9,3.2-3.5,4.2C260.6,17.1,257.9,18.7,257.9,23.3z
			 M249.9,32.3c0,2.5,0,10.1,19.5,10.1c10.8,0,17.1-2.3,18.9-6.9c0,0,0-0.1,0-0.1c0.4-1,0.6-2,0.6-3.2c0-4.2-3.2-5.9-6.2-6.6
			c-1.7,2.9-6.5,4.7-13.3,4.7c-6.8,0-11.6-1.8-13.3-4.7C253.1,26.3,249.9,27.9,249.9,32.3z M242.4,58c2.3,1.4,3.8,0.3,5.8-1.3
			c2.3-1.8,5.3-4.1,10.1-2.5c1.4,0.5,2.6,1.6,3.7,2.6c1,0.9,2,1.8,3,2.2c2.2,0.8,4.8,0.2,6.4-1.5c0.4-0.5,0.9-1.1,1.3-1.7
			c1.8-2.4,3.9-5.3,7.3-5.1c2.1,0.1,3.4,1,4.8,1.9c0.6,0.4,1.1,0.8,1.8,1.1c1.8,0.9,3.5,0.8,5.2-0.5c1.6-1.2,2.9-3.1,3.7-4.6
			c-1.1-4-3.1-7.8-5.7-10.6c-2.8,4.6-9.7,6.9-20.4,6.9c-10.8,0-17.6-2.3-20.4-6.9C244.5,42.9,241.7,50.8,242.4,58z M291.5,72
			c-0.9,0.5-1.9,1-3.2,1.3c-2.9,0.7-5.2-0.1-6.6-0.8c-1,0.9-3,2.2-6,2.4c-2.9,0.2-5.1-0.8-6.3-1.7c-1.1,0.8-3.1,1.7-5.6,1.7
			c-0.2,0-0.4,0-0.7,0c-2.8-0.2-4.9-1.4-6-2.4c-1.3,0.8-3.7,1.6-6.6,0.8c-1.3-0.3-2.3-0.8-3.2-1.3l4.6,18.7
			c1.4,0.7,6.6,2.9,17.5,2.9c10.9,0,16-2.2,17.4-2.9L291.5,72z M257.9,75.8c-0.5,0.1-0.9,0.6-0.9,1.1l1.6,12.4
			c0.1,0.5,0.5,0.9,1,0.9c0,0,0.1,0,0.1,0c0.5-0.1,0.9-0.6,0.9-1.1L259,76.7C258.9,76.1,258.4,75.7,257.9,75.8z M263.1,22.3l1.9,0.8
			c0.1,0.1,0.3,0.1,0.4,0.1c0.4,0,0.8-0.2,0.9-0.6c0.2-0.5,0-1.1-0.5-1.3l-1.9-0.8c-0.5-0.2-1.1,0-1.3,0.5
			C262.4,21.5,262.6,22.1,263.1,22.3z M274.6,22c0.2,0,0.4-0.1,0.5-0.2l1.7-1.1c0.5-0.3,0.6-0.9,0.3-1.4c-0.3-0.5-0.9-0.6-1.4-0.3
			l-1.7,1.1c-0.5,0.3-0.6,0.9-0.3,1.4C274,21.9,274.3,22,274.6,22z M267.9,18.5c0.1,0,0.2,0,0.3,0l2-0.5c0.5-0.1,0.9-0.7,0.7-1.2
			c-0.1-0.5-0.7-0.9-1.2-0.7l-2,0.5c-0.5,0.1-0.9,0.7-0.7,1.2C267.1,18.2,267.5,18.5,267.9,18.5z M279.9,32.9l1.9,0.8
			c0.1,0.1,0.3,0.1,0.4,0.1c0.4,0,0.8-0.2,0.9-0.6c0.2-0.5,0-1.1-0.5-1.3l-1.9-0.8c-0.5-0.2-1.1,0-1.3,0.5
			C279.2,32.1,279.4,32.7,279.9,32.9z M255.8,33.6c0.2,0,0.4-0.1,0.5-0.2l1.7-1.1c0.5-0.3,0.6-0.9,0.3-1.4c-0.3-0.5-0.9-0.6-1.4-0.3
			l-1.7,1.1c-0.5,0.3-0.6,0.9-0.3,1.4C255.1,33.4,255.5,33.6,255.8,33.6z M272.2,36c0.1,0,0.2,0,0.3,0l2-0.5
			c0.5-0.1,0.9-0.7,0.7-1.2c-0.1-0.5-0.7-0.9-1.2-0.7l-2,0.5c-0.5,0.1-0.9,0.7-0.7,1.2C271.4,35.7,271.8,36,272.2,36z M263.7,36.1
			c0.1,0.4,0.5,0.7,1,0.7c0.1,0,0.2,0,0.3,0c0.5-0.1,0.8-0.7,0.7-1.2l-0.5-2c-0.1-0.5-0.7-0.8-1.2-0.7c-0.5,0.1-0.8,0.7-0.7,1.2
			L263.7,36.1z"/>
	</g>
	<g>
		<path d="M54.6,296.7v12.4c0,0.6-0.4,1-1,1s-1-0.4-1-1v-12.4c0-0.6,0.4-1,1-1S54.6,296.1,54.6,296.7z M65.1,295
			c-0.6-0.1-1,0.3-1.1,0.9l-1.6,12.4c-0.1,0.5,0.3,1,0.9,1.1c0,0,0.1,0,0.1,0c0.5,0,0.9-0.4,1-0.9l1.6-12.4
			C66.1,295.6,65.7,295.1,65.1,295z M78.8,288.5l-5.5,22.2c0,0.4-0.2,0.7-0.5,1c-0.2,0.1-5.5,3.5-19.2,3.5c-13.7,0-19-3.4-19.2-3.5
			c-0.2-0.2-0.4-0.4-0.5-0.7l-5.6-22.5c-7.6-9.4-4.2-25.8,3.8-33.7c0,0,0,0,0,0c-0.3-1-0.5-2.1-0.5-3.3c0-4.7,2.9-7.9,8-8.9
			c0,0,0-0.1,0-0.1c0-5.9,3.8-8.2,6.3-9.7c2.4-1.5,2.6-1.8,2-3c-0.2-0.4-0.2-0.9,0.1-1.2c0.3-0.4,0.7-0.6,1.1-0.5
			c8.5,1,18.4,5.4,18.4,14.5c0,0.1,0,0.1,0,0.2c5.1,1.2,8,4.3,8,8.9c0,1.2-0.2,2.3-0.5,3.3C83,262.8,86.4,279.1,78.8,288.5z
			 M53.6,290.9L53.6,290.9L53.6,290.9C53.6,290.9,53.6,290.9,53.6,290.9z M42,242.5c0,2.8,4.9,4.8,11.6,4.8s11.6-2,11.6-4.8
			c0-8.2-10.2-11-14.5-11.9c0,2-1.9,3.2-3.5,4.2C44.8,236.3,42,237.9,42,242.5z M34.1,251.5c0,2.5,0,10.1,19.5,10.1
			c10.8,0,17.1-2.3,18.9-6.9c0,0,0-0.1,0-0.1c0.4-1,0.6-2,0.6-3.2c0-4.2-3.2-5.9-6.2-6.6c-1.7,2.9-6.5,4.7-13.3,4.7
			c-6.8,0-11.6-1.8-13.3-4.7C37.3,245.5,34.1,247.2,34.1,251.5z M26.5,277.2c2.3,1.4,3.8,0.3,5.8-1.3c2.3-1.8,5.3-4.1,10.1-2.5
			c1.4,0.5,2.6,1.6,3.7,2.6c1,0.9,2,1.8,3,2.2c2.2,0.8,4.8,0.2,6.4-1.5c0.4-0.5,0.9-1.1,1.3-1.7c1.8-2.4,3.9-5.3,7.3-5.1
			c2.1,0.1,3.4,1,4.8,1.9c0.6,0.4,1.1,0.8,1.8,1.1c1.8,0.9,3.5,0.8,5.2-0.5c1.6-1.2,2.9-3.1,3.7-4.6c-1.1-4-3.1-7.8-5.7-10.6
			c-2.8,4.6-9.7,6.9-20.4,6.9c-10.8,0-17.6-2.3-20.4-6.9C28.7,262.1,25.9,270,26.5,277.2z M75.7,291.2c-0.9,0.5-1.9,1-3.2,1.3
			c-2.9,0.7-5.2-0.1-6.6-0.8c-1,0.9-3,2.2-6,2.4c-2.9,0.2-5.1-0.8-6.3-1.7c-1.1,0.8-3.1,1.7-5.6,1.7c-0.2,0-0.4,0-0.7,0
			c-2.8-0.2-4.9-1.4-6-2.4c-1.3,0.8-3.7,1.6-6.6,0.8c-1.3-0.3-2.3-0.8-3.2-1.3l4.6,18.7c1.4,0.7,6.6,2.9,17.5,2.9
			c10.9,0,16-2.2,17.4-2.9L75.7,291.2z M42,295c-0.5,0.1-0.9,0.6-0.9,1.1l1.6,12.4c0.1,0.5,0.5,0.9,1,0.9c0,0,0.1,0,0.1,0
			c0.5-0.1,0.9-0.6,0.9-1.1l-1.6-12.4C43.1,295.3,42.6,294.9,42,295z M47.3,241.5l1.9,0.8c0.1,0.1,0.3,0.1,0.4,0.1
			c0.4,0,0.8-0.2,0.9-0.6c0.2-0.5,0-1.1-0.5-1.3l-1.9-0.8c-0.5-0.2-1.1,0-1.3,0.5C46.6,240.7,46.8,241.3,47.3,241.5z M58.8,241.2
			c0.2,0,0.4-0.1,0.5-0.2l1.7-1.1c0.5-0.3,0.6-0.9,0.3-1.4c-0.3-0.5-0.9-0.6-1.4-0.3l-1.7,1.1c-0.5,0.3-0.6,0.9-0.3,1.4
			C58.2,241.1,58.5,241.2,58.8,241.2z M52.1,237.7c0.1,0,0.2,0,0.3,0l2-0.5c0.5-0.1,0.9-0.7,0.7-1.2c-0.1-0.5-0.7-0.9-1.2-0.7
			l-2,0.5c-0.5,0.1-0.9,0.7-0.7,1.2C51.2,237.4,51.6,237.7,52.1,237.7z M64.1,252.2L66,253c0.1,0.1,0.3,0.1,0.4,0.1
			c0.4,0,0.8-0.2,0.9-0.6c0.2-0.5,0-1.1-0.5-1.3l-1.9-0.8c-0.5-0.2-1.1,0-1.3,0.5C63.4,251.3,63.6,251.9,64.1,252.2z M40,252.8
			c0.2,0,0.4-0.1,0.5-0.2l1.7-1.1c0.5-0.3,0.6-0.9,0.3-1.4c-0.3-0.5-0.9-0.6-1.4-0.3l-1.7,1.1c-0.5,0.3-0.6,0.9-0.3,1.4
			C39.3,252.6,39.6,252.8,40,252.8z M56.4,255.2c0.1,0,0.2,0,0.3,0l2-0.5c0.5-0.1,0.9-0.7,0.7-1.2c-0.1-0.5-0.7-0.9-1.2-0.7l-2,0.5
			c-0.5,0.1-0.9,0.7-0.7,1.2C55.6,255,56,255.2,56.4,255.2z M47.8,255.4c0.1,0.4,0.5,0.7,1,0.7c0.1,0,0.2,0,0.3,0
			c0.5-0.1,0.8-0.7,0.7-1.2l-0.5-2c-0.1-0.5-0.7-0.8-1.2-0.7c-0.5,0.1-0.8,0.7-0.7,1.2L47.8,255.4z"/>
	</g>
	<g>
		<path d="M164.1,187.2v12.4c0,0.6-0.4,1-1,1c-0.6,0-1-0.4-1-1v-12.4c0-0.6,0.4-1,1-1C163.7,186.2,164.1,186.7,164.1,187.2z
			 M174.6,185.6c-0.6-0.1-1,0.3-1.1,0.9l-1.6,12.4c-0.1,0.5,0.3,1.1,0.9,1.1c0,0,0.1,0,0.1,0c0.5,0,0.9-0.4,1-0.9l1.6-12.4
			C175.6,186.1,175.2,185.6,174.6,185.6z M188.4,179.1l-5.5,22.2c0,0.4-0.2,0.7-0.5,1c-0.2,0.1-5.5,3.5-19.2,3.5
			c-13.7,0-19-3.4-19.2-3.5c-0.2-0.2-0.4-0.4-0.5-0.7l-5.6-22.5c-7.6-9.4-4.2-25.8,3.8-33.7c0,0,0,0,0,0c-0.3-1-0.5-2.1-0.5-3.3
			c0-4.7,2.9-7.9,8-8.9c0,0,0-0.1,0-0.1c0-5.9,3.8-8.2,6.3-9.7c2.4-1.5,2.6-1.8,2-3c-0.2-0.4-0.2-0.9,0.1-1.2
			c0.3-0.4,0.7-0.6,1.1-0.5c8.5,1,18.4,5.4,18.4,14.5c0,0.1,0,0.1,0,0.2c5.1,1.2,8,4.3,8,8.9c0,1.2-0.2,2.3-0.5,3.3
			C192.6,153.3,195.9,169.6,188.4,179.1z M163.1,181.5L163.1,181.5L163.1,181.5C163.1,181.5,163.1,181.5,163.1,181.5z M151.6,133.1
			c0,2.8,4.9,4.8,11.6,4.8s11.6-2,11.6-4.8c0-8.2-10.2-11-14.5-11.9c0,2-1.9,3.2-3.5,4.2C154.3,126.8,151.6,128.5,151.6,133.1z
			 M143.6,142.1c0,2.5,0,10.1,19.5,10.1c10.8,0,17.1-2.3,18.9-6.9c0,0,0-0.1,0-0.1c0.4-1,0.6-2,0.6-3.2c0-4.2-3.2-5.9-6.2-6.6
			c-1.7,2.9-6.5,4.7-13.3,4.7c-6.8,0-11.6-1.8-13.3-4.7C146.8,136.1,143.6,137.7,143.6,142.1z M136.1,167.8c2.3,1.4,3.8,0.3,5.8-1.3
			c2.4-1.8,5.3-4.1,10.1-2.5c1.4,0.5,2.6,1.6,3.7,2.6c1,0.9,2,1.8,3,2.2c2.2,0.8,4.8,0.2,6.4-1.5c0.4-0.5,0.9-1.1,1.3-1.7
			c1.8-2.4,3.9-5.3,7.3-5.1c2.1,0.1,3.4,1,4.8,1.9c0.6,0.4,1.1,0.8,1.8,1.1c1.8,0.9,3.5,0.8,5.2-0.5c1.6-1.2,2.9-3.1,3.7-4.6
			c-1.1-4-3.1-7.8-5.7-10.6c-2.8,4.6-9.7,6.9-20.4,6.9c-10.8,0-17.6-2.3-20.4-6.9C138.2,152.7,135.5,160.6,136.1,167.8z
			 M185.2,181.8c-0.9,0.5-1.9,1-3.2,1.3c-2.9,0.7-5.2-0.1-6.6-0.8c-1,0.9-3,2.2-6,2.4c-2.9,0.2-5.1-0.8-6.3-1.7
			c-1.1,0.8-3.1,1.7-5.6,1.7c-0.2,0-0.4,0-0.6,0c-2.8-0.2-4.9-1.4-6-2.4c-1.3,0.8-3.7,1.6-6.6,0.8c-1.3-0.3-2.3-0.8-3.2-1.3
			l4.6,18.7c1.4,0.7,6.6,2.9,17.5,2.9c10.9,0,16-2.2,17.4-2.9L185.2,181.8z M151.6,185.6c-0.5,0.1-0.9,0.6-0.9,1.1l1.6,12.4
			c0.1,0.5,0.5,0.9,1,0.9c0,0,0.1,0,0.1,0c0.5-0.1,0.9-0.6,0.9-1.1l-1.6-12.4C152.6,185.9,152.1,185.5,151.6,185.6z M156.9,132.1
			l1.9,0.8c0.1,0.1,0.3,0.1,0.4,0.1c0.4,0,0.8-0.2,0.9-0.6c0.2-0.5,0-1.1-0.5-1.3l-1.9-0.8c-0.5-0.2-1.1,0-1.3,0.5
			C156.1,131.3,156.3,131.9,156.9,132.1z M168.3,131.8c0.2,0,0.4-0.1,0.5-0.2l1.7-1.1c0.5-0.3,0.6-0.9,0.3-1.4
			c-0.3-0.5-0.9-0.6-1.4-0.3l-1.7,1.1c-0.5,0.3-0.6,0.9-0.3,1.4C167.7,131.6,168,131.8,168.3,131.8z M161.6,128.2c0.1,0,0.2,0,0.3,0
			l2-0.5c0.5-0.1,0.9-0.7,0.7-1.2c-0.1-0.5-0.7-0.9-1.2-0.7l-2,0.5c-0.5,0.1-0.9,0.7-0.7,1.2C160.8,127.9,161.2,128.2,161.6,128.2z
			 M173.6,142.7l1.9,0.8c0.1,0.1,0.3,0.1,0.4,0.1c0.4,0,0.8-0.2,0.9-0.6c0.2-0.5,0-1.1-0.5-1.3l-1.9-0.8c-0.5-0.2-1.1,0-1.3,0.5
			C172.9,141.9,173.1,142.5,173.6,142.7z M149.5,143.3c0.2,0,0.4-0.1,0.5-0.2l1.7-1.1c0.5-0.3,0.6-0.9,0.3-1.4
			c-0.3-0.5-0.9-0.6-1.4-0.3l-1.7,1.1c-0.5,0.3-0.6,0.9-0.3,1.4C148.9,143.2,149.2,143.3,149.5,143.3z M165.9,145.8
			c0.1,0,0.2,0,0.3,0l2-0.5c0.5-0.1,0.9-0.7,0.7-1.2c-0.1-0.5-0.7-0.9-1.2-0.7l-2,0.5c-0.5,0.1-0.9,0.7-0.7,1.2
			C165.1,145.5,165.5,145.8,165.9,145.8z M157.4,145.9c0.1,0.4,0.5,0.7,1,0.7c0.1,0,0.2,0,0.3,0c0.5-0.1,0.8-0.7,0.7-1.2l-0.5-2
			c-0.1-0.5-0.7-0.8-1.2-0.7c-0.5,0.1-0.8,0.7-0.7,1.2L157.4,145.9z"/>
	</g>
</g>
</svg>
