<?xml version="1.0" encoding="utf-8"?>
<!-- Generator: Adobe Illustrator 21.0.0, SVG Export Plug-In . SVG Version: 6.00 Build 0)  -->
<svg version="1.1" id="Layer_1" xmlns="http://www.w3.org/2000/svg" xmlns:xlink="http://www.w3.org/1999/xlink" x="0px" y="0px"
	 viewBox="0 0 100 100" style="enable-background:new 0 0 100 100;" xml:space="preserve">
<style type="text/css">
	.st0{fill:#DC498A;}
	.st1{fill:#63CC79;}
	.st2{fill:none;stroke:#63CC79;stroke-miterlimit:10;}
	.st3{fill:none;stroke:#DC498A;stroke-miterlimit:10;}
	.st4{fill:none;stroke:#000000;stroke-miterlimit:10;}
</style>
<g>
	<g id="XMLID_1_">
		<g>
			<path class="st0" d="M70.4,35.6c2.6,2.8,4.6,6.6,5.7,10.6c-0.9,1.6-2.1,3.5-3.7,4.6c-1.7,1.2-3.4,1.4-5.2,0.5
				c-0.7-0.3-1.2-0.7-1.8-1.1c-1.3-0.9-2.7-1.8-4.8-1.9c-3.4-0.2-5.6,2.7-7.3,5.1c-0.5,0.6-0.9,1.2-1.3,1.7
				c-1.6,1.8-4.1,2.4-6.3,1.5c-1-0.4-2-1.3-3-2.2c-1.2-1-2.4-2.1-3.7-2.6c-4.8-1.6-7.8,0.6-10.1,2.4c-2.1,1.6-3.5,2.7-5.8,1.3
				c-0.6-7.2,2.1-15.1,6.7-20c2.8,4.6,9.7,6.9,20.4,6.9S67.6,40.2,70.4,35.6z"/>
			<path class="st1" d="M72.1,69.6l-4.6,18.7c-0.9,0.4-3.1,1.4-7,2.1L60,87.8c0.4-0.1,0.8-0.4,0.8-0.8l1.6-12.4
				c0.1-0.5-0.3-1-0.9-1.1c0,0-0.1,0-0.1,0L58.9,72c1.6-0.5,2.8-1.3,3.5-1.9c1.3,0.8,3.7,1.6,6.6,0.8C70.2,70.6,71.2,70.2,72.1,69.6
				z"/>
			<path d="M63.7,30.9c-0.2,0.4-0.5,0.6-0.9,0.6c-0.1,0-0.3,0-0.4-0.1l-1.9-0.8c-0.5-0.2-0.7-0.8-0.5-1.3c0.2-0.5,0.8-0.7,1.3-0.5
				l1.9,0.8C63.7,29.8,63.9,30.3,63.7,30.9z"/>
			<path class="st0" d="M57.5,18.4c0.5-0.3,0.6-0.9,0.3-1.4c-0.3-0.5-0.9-0.6-1.4-0.3l-1.7,1.1c-0.5,0.3-0.6,0.9-0.3,1.4
				c0.2,0.3,0.5,0.5,0.8,0.5c0.2,0,0.4,0,0.5-0.2L57.5,18.4z M47,9c4.4,0.8,14.5,3.6,14.5,11.9c0,2.8-4.9,4.8-11.6,4.8
				s-11.6-2-11.6-4.8c0-4.6,2.7-6.2,5.1-7.7C45.2,12.2,47.1,11.1,47,9z M50.7,15.5c0.5-0.1,0.8-0.7,0.7-1.2
				c-0.1-0.5-0.7-0.9-1.2-0.7l-2,0.5c-0.5,0.1-0.9,0.7-0.7,1.2c0.1,0.5,0.5,0.8,1,0.8c0.1,0,0.2,0,0.2,0L50.7,15.5z M46.9,20.2
				c0.2-0.5,0-1.1-0.5-1.3l-1.9-0.8c-0.5-0.2-1.1,0-1.3,0.5c-0.2,0.5,0,1.1,0.5,1.3l1.9,0.8c0.1,0.1,0.3,0.1,0.4,0.1
				C46.4,20.8,46.8,20.6,46.9,20.2z"/>
			<path class="st0" d="M61.3,28.7c-0.5-0.2-1.1,0-1.3,0.5c-0.2,0.5,0,1.1,0.5,1.3l1.9,0.8c0.1,0.1,0.3,0.1,0.4,0.1
				c0.4,0,0.8-0.2,0.9-0.6c0.2-0.5,0-1.1-0.5-1.3L61.3,28.7z M39,28.5c-0.3-0.5-0.9-0.6-1.4-0.3l-1.7,1.1c-0.5,0.3-0.6,0.9-0.3,1.4
				c0.2,0.3,0.5,0.5,0.8,0.5c0.2,0,0.4-0.1,0.5-0.2l1.7-1.1C39.1,29.6,39.2,29,39,28.5z M36.7,23.3c1.7,2.9,6.5,4.7,13.3,4.7
				c6.7,0,11.6-1.8,13.3-4.7c3,0.6,6.2,2.3,6.2,6.6c0,1.2-0.2,2.2-0.6,3.2c0,0,0,0.1,0,0.1c-1.9,4.6-8.1,6.9-18.9,6.9
				c-19.5,0-19.5-7.6-19.5-10.1C30.5,25.5,33.7,23.9,36.7,23.3z M44.4,30.5c-0.5,0.1-0.8,0.7-0.7,1.2l0.5,2c0.1,0.4,0.5,0.7,1,0.7
				c0.1,0,0.2,0,0.3,0c0.5-0.2,0.8-0.7,0.7-1.2l-0.5-2C45.5,30.7,45,30.4,44.4,30.5z M55.1,33.1c0.5-0.1,0.9-0.7,0.7-1.2
				c-0.1-0.5-0.7-0.9-1.2-0.7l-2,0.5c-0.5,0.1-0.8,0.7-0.7,1.2c0.1,0.5,0.5,0.7,1,0.7c0.1,0,0.2,0,0.2,0L55.1,33.1z"/>
			<path d="M61.5,73.4c0.6,0.1,0.9,0.6,0.9,1.1l-1.6,12.4c0,0.4-0.4,0.8-0.8,0.8c-0.1,0-0.1,0-0.2,0c0,0-0.1,0-0.1,0
				c-0.5-0.1-0.9-0.6-0.9-1.1l1.6-12.4c0.1-0.5,0.5-0.9,1-0.9C61.4,73.4,61.5,73.4,61.5,73.4z"/>
			<path d="M54.7,17.8l1.7-1.1c0.5-0.3,1.1-0.2,1.4,0.3c0.3,0.5,0.2,1.1-0.3,1.4l-1.7,1.1c-0.2,0.1-0.4,0.2-0.5,0.2
				c-0.3,0-0.6-0.2-0.8-0.5C54.1,18.7,54.2,18.1,54.7,17.8z"/>
			<path d="M54.5,31.1c0.5-0.1,1.1,0.2,1.2,0.7c0.1,0.5-0.2,1.1-0.7,1.2l-2,0.5c-0.1,0-0.2,0-0.2,0c-0.5,0-0.9-0.3-1-0.7
				c-0.1-0.5,0.2-1.1,0.7-1.2L54.5,31.1z"/>
			<path d="M51,75.1v12.5c0,0.5-0.4,1-1,1c-0.6,0-1-0.5-1-1V75.1c0-0.5,0.4-1,1-1C50.6,74.1,51,74.5,51,75.1z"/>
			<path class="st1" d="M59.8,87.8c0.1,0,0.1,0,0.2,0l0.5,2.7c-2.6,0.5-6.1,0.8-10.4,0.8c0,0,0,0,0,0l0-2.7c0.6,0,1-0.5,1-1V75.1
				c0-0.5-0.4-1-1-1l1.6-2.3c1.2,0.5,2.8,0.9,4.7,0.8c1-0.1,1.8-0.2,2.5-0.5l2.5,1.3c-0.5,0-0.9,0.4-1,0.9l-1.6,12.4
				c-0.1,0.6,0.3,1.1,0.9,1.1C59.7,87.8,59.8,87.8,59.8,87.8z"/>
			<path d="M50.2,13.6c0.5-0.1,1.1,0.2,1.2,0.7c0.1,0.5-0.2,1.1-0.7,1.2l-2,0.5c-0.1,0-0.2,0-0.2,0c-0.4,0-0.8-0.3-1-0.8
				c-0.1-0.5,0.2-1.1,0.7-1.2L50.2,13.6z"/>
			<path d="M43.7,19.9c-0.5-0.2-0.7-0.8-0.5-1.3c0.2-0.5,0.8-0.7,1.3-0.5l1.9,0.8c0.5,0.2,0.7,0.8,0.5,1.3c-0.2,0.4-0.5,0.6-0.9,0.6
				c-0.1,0-0.3,0-0.4-0.1L43.7,19.9z"/>
			<path d="M43.7,31.8c-0.1-0.5,0.2-1.1,0.7-1.2c0.5-0.1,1.1,0.2,1.2,0.7l0.5,2c0.1,0.5-0.2,1.1-0.7,1.2c-0.1,0-0.2,0-0.3,0
				c-0.4,0-0.8-0.3-1-0.7L43.7,31.8z"/>
			<path class="st1" d="M40.3,87.8c0.5-0.1,0.9-0.6,0.9-1.1l-1.6-12.4c-0.1-0.5-0.5-0.9-1-0.9l1.1-1.9c1.1,0.5,2.4,1,4,1.1
				c0.2,0,0.4,0,0.7,0c2.5,0,4.5-0.9,5.6-1.7c0.4,0.3,1,0.6,1.6,0.9L50,74.1c-0.6,0-1,0.5-1,1v12.5c0,0.5,0.4,1,1,1l0,2.7
				c-4.3,0-7.8-0.4-10.4-0.8l0.5-2.7c0.1,0,0.1,0,0.2,0C40.2,87.8,40.3,87.8,40.3,87.8z"/>
			<path class="st1" d="M40,87.8l-0.5,2.7c-4-0.7-6.2-1.7-7-2.1l-4.6-18.7c0.9,0.5,1.9,1,3.2,1.3c2.9,0.7,5.2-0.1,6.6-0.8
				c0.5,0.4,1.2,0.9,2,1.3l-1.1,1.9c0,0-0.1,0-0.1,0c-0.5,0.1-0.9,0.6-0.9,1.1l1.6,12.4C39.2,87.3,39.6,87.7,40,87.8z"/>
			<path d="M41.2,86.6c0.1,0.6-0.3,1.1-0.9,1.1c-0.1,0-0.1,0-0.1,0c-0.1,0-0.1,0-0.2,0c-0.4-0.1-0.8-0.4-0.8-0.8l-1.6-12.4
				c-0.1-0.5,0.3-1,0.9-1.1c0,0,0.1,0,0.1,0c0.5,0,0.9,0.4,1,0.9L41.2,86.6z"/>
			<path d="M38.7,29.9L36.9,31c-0.2,0.1-0.4,0.2-0.5,0.2c-0.3,0-0.6-0.2-0.8-0.5c-0.3-0.5-0.2-1.1,0.3-1.4l1.7-1.1
				c0.5-0.3,1.1-0.2,1.4,0.3C39.2,29,39.1,29.6,38.7,29.9z"/>
			<path d="M50,25.7c6.7,0,11.6-2,11.6-4.8c0-8.2-10.2-11-14.5-11.9c0,2-1.9,3.2-3.5,4.2c-2.4,1.4-5.1,3.1-5.1,7.7
				C38.5,23.7,43.3,25.7,50,25.7z M67.5,88.4l4.6-18.7c-0.9,0.5-1.9,1-3.2,1.3c-2.9,0.7-5.2-0.1-6.6-0.8c-0.7,0.6-1.8,1.4-3.5,1.9
				c-0.8,0.2-1.6,0.4-2.5,0.5c-1.9,0.1-3.5-0.3-4.7-0.8c-0.7-0.3-1.2-0.6-1.6-0.9c-1.2,0.8-3.1,1.7-5.6,1.7c-0.2,0-0.4,0-0.7,0
				c-1.6-0.1-2.9-0.5-4-1.1c-0.8-0.4-1.5-0.9-2-1.3c-1.3,0.8-3.7,1.6-6.6,0.8c-1.3-0.3-2.3-0.8-3.2-1.3l4.6,18.7
				c0.8,0.4,3,1.4,7,2.1c2.6,0.5,6.1,0.8,10.4,0.8c0,0,0,0,0,0c4.3,0,7.8-0.3,10.4-0.8C64.4,89.8,66.6,88.8,67.5,88.4z M68.9,33.2
				c0,0,0-0.1,0-0.1c0.4-1,0.6-2,0.6-3.2c0-4.2-3.2-5.9-6.2-6.6c-1.7,2.9-6.5,4.7-13.3,4.7c-6.8,0-11.6-1.8-13.3-4.7
				c-3,0.6-6.2,2.2-6.2,6.6c0,2.5,0,10.1,19.5,10.1C60.8,40.1,67.1,37.8,68.9,33.2z M76.1,46.2c-1.1-4-3.1-7.8-5.7-10.6
				c-2.8,4.6-9.7,6.9-20.4,6.9s-17.6-2.3-20.4-6.9c-4.5,4.9-7.3,12.8-6.7,20c2.3,1.4,3.8,0.3,5.8-1.3c2.3-1.8,5.3-4.1,10.1-2.4
				c1.4,0.5,2.6,1.6,3.7,2.6c1,0.9,2,1.8,3,2.2c2.2,0.8,4.8,0.2,6.3-1.5c0.4-0.5,0.9-1.1,1.3-1.7c1.8-2.4,3.9-5.3,7.3-5.1
				c2.1,0.1,3.4,1,4.8,1.9c0.6,0.4,1.2,0.8,1.8,1.1c1.8,0.9,3.4,0.8,5.2-0.5C74,49.6,75.2,47.8,76.1,46.2z M71.5,33.2
				c8,7.9,11.3,24.2,3.8,33.7l-5.5,22.2c0,0.4-0.2,0.7-0.5,1c-0.2,0.2-5.5,3.5-19.2,3.5s-19-3.4-19.2-3.5c-0.2-0.2-0.4-0.4-0.5-0.7
				l-5.6-22.5c-7.6-9.4-4.2-25.8,3.8-33.7c-0.3-1-0.5-2.1-0.5-3.3c0-4.7,2.9-7.9,8-8.9c0,0,0-0.1,0-0.1c0-5.9,3.8-8.2,6.3-9.7
				c2.4-1.5,2.6-1.8,2-3c-0.2-0.4-0.2-0.9,0.1-1.2c0.2-0.4,0.7-0.6,1.1-0.5C54,7.4,64,11.8,64,20.9c0,0.1,0,0.1,0,0.2
				c5.1,1.1,8,4.3,8,8.9C71.9,31.1,71.8,32.2,71.5,33.2z"/>
		</g>
		<g>
			<path class="st2" d="M60.4,90.4c4-0.7,6.2-1.6,7-2.1l4.6-18.7c-0.9,0.5-1.9,1-3.2,1.3c-2.9,0.7-5.2-0.1-6.6-0.8
				c-0.7,0.6-1.8,1.4-3.5,1.9c-0.8,0.2-1.6,0.4-2.5,0.5c-1.9,0.1-3.5-0.3-4.7-0.8c-0.7-0.3-1.2-0.6-1.6-0.9
				c-1.2,0.8-3.1,1.7-5.6,1.7c-0.2,0-0.4,0-0.7,0c-1.6-0.1-2.9-0.5-4-1.1c-0.8-0.4-1.5-0.9-2-1.3c-1.3,0.8-3.7,1.6-6.6,0.8
				c-1.3-0.3-2.3-0.8-3.2-1.3l4.6,18.7c0.8,0.4,3,1.4,7,2.1c2.6,0.5,6.1,0.8,10.4,0.8c0,0,0,0,0,0C54.4,91.2,57.8,90.9,60.4,90.4z"
				/>
			<path class="st3" d="M38.5,20.9c0,2.8,4.9,4.8,11.6,4.8s11.6-2,11.6-4.8c0-8.2-10.2-11-14.5-11.9c0,2-1.9,3.2-3.5,4.2
				C41.2,14.7,38.5,16.3,38.5,20.9z"/>
			<path class="st3" d="M30.5,29.9c0,2.5,0,10.1,19.5,10.1c10.8,0,17.1-2.3,18.9-6.9c0,0,0-0.1,0-0.1c0.4-1,0.6-2,0.6-3.2
				c0-4.2-3.2-5.9-6.2-6.6c-1.7,2.9-6.5,4.7-13.3,4.7c-6.8,0-11.6-1.8-13.3-4.7C33.7,23.9,30.5,25.5,30.5,29.9z"/>
			<path class="st3" d="M22.9,55.6c2.3,1.4,3.8,0.3,5.8-1.3c2.3-1.8,5.3-4.1,10.1-2.4c1.4,0.5,2.6,1.6,3.7,2.6c1,0.9,2,1.8,3,2.2
				c2.2,0.8,4.8,0.2,6.3-1.5c0.4-0.5,0.9-1.1,1.3-1.7c1.8-2.4,3.9-5.3,7.3-5.1c2.1,0.1,3.4,1,4.8,1.9c0.6,0.4,1.2,0.8,1.8,1.1
				c1.8,0.9,3.4,0.8,5.2-0.5c1.6-1.2,2.9-3.1,3.7-4.6c-1.1-4-3.1-7.8-5.7-10.6c-2.8,4.6-9.7,6.9-20.4,6.9s-17.6-2.3-20.4-6.9
				C25.1,40.5,22.3,48.4,22.9,55.6z"/>
			<path class="st4" d="M43.7,19.9l1.9,0.8c0.1,0.1,0.3,0.1,0.4,0.1c0.4,0,0.8-0.2,0.9-0.6c0.2-0.5,0-1.1-0.5-1.3l-1.9-0.8
				c-0.5-0.2-1.1,0-1.3,0.5C43,19.1,43.2,19.7,43.7,19.9z"/>
			<path class="st4" d="M55.2,19.6c0.2,0,0.4,0,0.5-0.2l1.7-1.1c0.5-0.3,0.6-0.9,0.3-1.4c-0.3-0.5-0.9-0.6-1.4-0.3l-1.7,1.1
				c-0.5,0.3-0.6,0.9-0.3,1.4C54.6,19.5,54.9,19.6,55.2,19.6z"/>
			<path class="st4" d="M48.5,16.1c0.1,0,0.2,0,0.2,0l2-0.5c0.5-0.1,0.8-0.7,0.7-1.2c-0.1-0.5-0.7-0.9-1.2-0.7l-2,0.5
				c-0.5,0.1-0.9,0.7-0.7,1.2C47.7,15.8,48.1,16.1,48.5,16.1z"/>
			<path class="st4" d="M60.5,30.5l1.9,0.8c0.1,0.1,0.3,0.1,0.4,0.1c0.4,0,0.8-0.2,0.9-0.6c0.2-0.5,0-1.1-0.5-1.3l-1.9-0.8
				c-0.5-0.2-1.1,0-1.3,0.5C59.8,29.7,60,30.3,60.5,30.5z"/>
			<path class="st4" d="M36.4,31.2c0.2,0,0.4-0.1,0.5-0.2l1.7-1.1c0.5-0.3,0.6-0.9,0.3-1.4c-0.3-0.5-0.9-0.6-1.4-0.3l-1.7,1.1
				c-0.5,0.3-0.6,0.9-0.3,1.4C35.7,31,36.1,31.2,36.4,31.2z"/>
			<path class="st4" d="M52.8,33.6c0.1,0,0.2,0,0.2,0l2-0.5c0.5-0.1,0.9-0.7,0.7-1.2c-0.1-0.5-0.7-0.9-1.2-0.7l-2,0.5
				c-0.5,0.1-0.8,0.7-0.7,1.2C52,33.3,52.4,33.6,52.8,33.6z"/>
			<path class="st4" d="M44.2,33.8c0.1,0.4,0.5,0.7,1,0.7c0.1,0,0.2,0,0.3,0c0.5-0.2,0.8-0.7,0.7-1.2l-0.5-2
				c-0.1-0.5-0.7-0.8-1.2-0.7c-0.5,0.1-0.8,0.7-0.7,1.2L44.2,33.8z"/>
		</g>
	</g>
</g>
</svg>
