<?xml version="1.0" encoding="utf-8"?>
<!-- Generator: Adobe Illustrator 21.0.0, SVG Export Plug-In . SVG Version: 6.00 Build 0)  -->
<svg version="1.1" id="Layer_1" xmlns="http://www.w3.org/2000/svg" xmlns:xlink="http://www.w3.org/1999/xlink" x="0px" y="0px"
	 viewBox="0 0 100 100" style="enable-background:new 0 0 100 100;" xml:space="preserve">
<style type="text/css">
	.st0{fill:#F3AE5F;stroke:#F2AE5E;stroke-miterlimit:10;}
	.st1{fill:#C57BDB;stroke:#C57BDB;stroke-miterlimit:10;}
	.st2{fill:none;stroke:#000000;stroke-miterlimit:10;}
</style>
<g>
	<g id="XMLID_1_">
		<path class="st0" d="M62.1,21c1,2.6,1.1,5.6,0.6,8c0,0.1,0,0.1,0,0.1s0,0,0,0.1c-1.9,1.6-4,2.9-6.2,4c-0.8-1-1.9-1.6-3.2-1.6
			c-2.3,0-4.2,1.9-4.2,4.2c0,0.2,0,0.4,0,0.5c-7.2,2.4-14.1,3.1-17.9,3.3c-0.3-1.6-1.6-2.9-3.2-3.2c-0.1-0.3-0.1-0.6-0.2-0.7
			c-0.1-0.6-0.1-1.2-0.1-1.7c1.3-0.1,3.6-0.4,6.6-0.9c0.4-0.1,0.7-0.5,0.7-0.9c-0.1-0.4-0.5-0.7-0.9-0.7c-2.7,0.5-4.9,0.8-6.2,0.9
			c0.1-0.4,0.2-0.9,0.3-1.3c0.6-2.3,1.9-4.4,3.5-5.7c2.1-1.7,4.8-2.6,7.7-3.5c1.2-0.4,2.3-0.8,3.5-1.2c0.5,1.7,2.1,3,4,3
			c2.3,0,4.2-1.9,4.2-4.1c0-1.3-0.6-2.5-1.6-3.2c0.2-0.3,0.5-0.6,0.7-0.9c0.7-1,1.2-2.2,1.4-3.5c2.7,1.3,6,3.1,8.5,5.7
			c0.5,0.5,0.9,1.1,1.3,1.7c-1.1,1.2-2.4,2.3-3.8,3.3c-0.4,0.3-0.4,0.8-0.2,1.1c0.2,0.2,0.4,0.3,0.7,0.3c0.2,0,0.3,0,0.5-0.1
			C59.8,23,61,22,62.1,21z M53,27.3c0.4-0.2,0.5-0.7,0.4-1.1c-0.2-0.4-0.7-0.6-1.1-0.4c-3.2,1.6-7,3-11.2,4.1
			c-0.4,0.1-0.7,0.5-0.6,1c0.1,0.4,0.4,0.6,0.8,0.6c0.1,0,0.1,0,0.2,0C45.7,30.3,49.6,28.9,53,27.3z"/>
		<path d="M80.4,42.6c1.7,5.8-0.2,15.9-5.6,21.8l-5.5,22.2c0,0.4-0.2,0.7-0.5,1c-0.2,0.1-5.4,3.5-19.2,3.5s-19-3.4-19.2-3.5
			c-0.2-0.2-0.4-0.4-0.5-0.7l-5.5-22.4c-3.4-3.2-5.1-7.5-5.4-11l2.4-0.2c0.1,0.8,0.2,1.6,0.5,2.5c1.5-0.2,2.8,0.5,4,1.2
			c1.2,0.6,2.3,1.3,3.4,1c0.7-0.2,1.4-0.6,2.1-1c1.6-0.9,3.6-2.1,5.7-0.5c0.9,0.6,1.4,1.5,1.8,2.3c0.8,1.3,1.3,2.1,2.6,2.1
			c1.6,0,2.3-0.9,3.1-2.8c0.9-2,2.2-4.3,4.7-5.5c3.1-1.5,6.2-0.9,9.2,1.8l0.5,0.4c2.2,2,4,3.3,5.9,2.2c1.6-0.9,2-2.7,2.5-4.5
			c0.2-0.7,0.4-1.4,0.6-2.1c0.4-1,1.2-2.3,2.6-2.8c0.8-0.3,1.7-0.2,2.4,0.3c0.6,0.4,1,1,1.3,1.5c0.6,1,0.9,1.2,1.5,1.1
			c1.4-0.3,2.2-2.7,2.6-4.4c-0.1-1-0.2-2-0.5-2.8c-1.3-4.5-7.4-9.9-14.5-12.8c-2,1.6-4.2,3-6.4,4.2l-0.8-1.4c2.1-1.1,4.2-2.5,6.2-4
			c0,0,0,0,0-0.1v-0.1c0.5-2.4,0.5-5.4-0.6-8C61,22,59.8,23,58.5,24c-0.1,0.1-0.3,0.1-0.5,0.1s-0.5-0.1-0.7-0.3
			c-0.3-0.4-0.2-0.9,0.2-1.1c1.5-1,2.7-2.1,3.8-3.3c-0.4-0.6-0.8-1.2-1.3-1.7c-2.5-2.6-5.8-4.4-8.5-5.7l-2.4-0.4
			c0.1-0.5,0.1-0.9,0-1.3c0-0.4,0.1-0.8,0.5-1.1C50,8.9,50.5,8.9,50.9,9c3.1,1.4,7.6,3.6,10.9,7c2.1,2.1,3.3,5.2,3.6,8.5
			c2.2,0.1,3.9,1.9,3.9,4.1c0,0.6-0.2,1.2-0.4,1.8C74.1,33.4,79,37.8,80.4,42.6z M67.1,85.8l4.6-18.7c-0.9,0.5-1.9,1-3.2,1.3
			c-2.9,0.7-5.2-0.1-6.6-0.8c-0.8,0.7-2.1,1.6-4,2c-0.6,0.2-1.3,0.3-2.1,0.3c-1.9,0.1-3.5-0.3-4.7-0.8c-0.6-0.3-1.2-0.6-1.6-0.9
			c-1.2,0.8-3.1,1.7-5.7,1.7c-0.2,0-0.4,0-0.6,0c-1.6-0.1-2.9-0.5-4-1.1c-0.8-0.4-1.5-0.9-2-1.3c-1.3,0.8-3.7,1.6-6.6,0.8
			c-1.3-0.3-2.3-0.8-3.2-1.3L32,85.7c0.8,0.4,3,1.4,7,2.1c2.6,0.5,6.1,0.8,10.4,0.8c0,0,0,0,0.1,0c4.3,0,7.7-0.3,10.4-0.8
			C64,87.2,66.2,86.2,67.1,85.8z"/>
		<path class="st0" d="M78.1,43.3c0.2,0.8,0.4,1.8,0.5,2.8c-0.4,1.8-1.2,4.1-2.6,4.4c-0.6,0.1-0.8-0.1-1.5-1.1
			c-0.4-0.5-0.7-1.1-1.3-1.5c-0.8-0.5-1.6-0.6-2.4-0.3c-1.3,0.5-2.2,1.8-2.6,2.8c-0.2,0.7-0.4,1.4-0.6,2.1c-0.5,1.9-0.9,3.6-2.5,4.5
			c-1.9,1.2-3.7-0.2-5.9-2.2l-0.5-0.4c-3.1-2.7-6.2-3.3-9.2-1.8C47,53.8,45.7,56,44.8,58c-0.8,1.8-1.6,2.8-3.1,2.8
			c-1.4,0-1.9-0.8-2.6-2.1c-0.5-0.8-1-1.7-1.8-2.3C35,54.8,33,56,31.4,56.9c-0.7,0.4-1.5,0.8-2.1,1c-1.1,0.3-2.2-0.4-3.4-1
			c-1.2-0.7-2.6-1.4-4-1.2c-0.2-0.9-0.4-1.7-0.5-2.5c0-0.5,0-0.9,0-1.3c0.1-2.3,1.5-5.4,3.9-7.8c0.6,0.3,1.2,0.5,1.9,0.5
			c2,0,3.7-1.5,4.1-3.3c3.9-0.2,11-0.8,18.5-3.4c0.7,1.2,2,2,3.6,2c2.3,0,4.2-1.9,4.2-4.1c0-0.4-0.1-0.8-0.2-1.2
			c2.2-1.2,4.3-2.6,6.4-4.2C70.7,33.4,76.8,38.7,78.1,43.3z M70.2,39.6c0-2.3-1.9-4.2-4.2-4.2c-2.3,0-4.1,1.9-4.1,4.2
			s1.9,4.1,4.1,4.1C68.4,43.7,70.2,41.9,70.2,39.6z M43.1,47.8c0-2.3-1.9-4.2-4.1-4.2s-4.2,1.9-4.2,4.2s1.9,4.1,4.2,4.1
			S43.1,50.1,43.1,47.8z"/>
		<path class="st1" d="M71.7,67.1l-4.6,18.7c-0.9,0.4-3.1,1.4-7.1,2.1l-0.4-2.7c0.4-0.1,0.8-0.4,0.8-0.8L62,72
			c0.1-0.5-0.3-1-0.9-1.1c-0.2,0-0.5,0-0.6,0.1L58,69.6c1.9-0.5,3.2-1.4,4-2c1.3,0.8,3.7,1.6,6.6,0.8C69.8,68.1,70.8,67.6,71.7,67.1
			z"/>
		<path d="M66.1,35.4c2.3,0,4.2,1.9,4.2,4.2s-1.9,4.1-4.2,4.1c-2.3,0-4.1-1.9-4.1-4.1C61.9,37.3,63.8,35.4,66.1,35.4z"/>
		<path d="M61.1,70.8c0.5,0.1,0.9,0.6,0.9,1.1l-1.6,12.4c-0.1,0.4-0.4,0.8-0.8,0.8c-0.1,0-0.1,0-0.2,0h-0.1
			c-0.6-0.1-0.9-0.6-0.9-1.1L60,71.7c0-0.3,0.2-0.6,0.5-0.7C60.7,70.9,60.9,70.8,61.1,70.8z"/>
		<path class="st1" d="M58,69.6l2.5,1.4c-0.3,0.2-0.5,0.4-0.5,0.7l-1.6,12.4c-0.1,0.6,0.3,1.1,0.9,1.1h0.1c0.1,0,0.1,0,0.2,0
			l0.4,2.7c-2.6,0.5-6.1,0.8-10.4,0.8c0,0,0,0-0.1,0V86c0.5,0,1-0.5,1-1V72.5c0-0.5-0.5-1-1-1l1.6-2.3c1.2,0.5,2.8,0.9,4.7,0.8
			C56.7,69.9,57.3,69.8,58,69.6z"/>
		<path d="M57.2,34.7c0.1,0.4,0.2,0.8,0.2,1.2c0,2.3-1.9,4.1-4.2,4.1c-1.5,0-2.8-0.8-3.6-2c-7.5,2.5-14.6,3.2-18.5,3.4v-1.6
			c3.8-0.2,10.7-0.8,17.9-3.3c0-0.2,0-0.4,0-0.5c0-2.3,1.9-4.2,4.2-4.2c1.3,0,2.5,0.6,3.2,1.6L57.2,34.7z"/>
		<path d="M53.3,26.2c0.2,0.4,0,0.9-0.4,1.1c-3.4,1.6-7.2,3.1-11.5,4.2c-0.1,0-0.1,0-0.2,0c-0.4,0-0.7-0.2-0.8-0.6s0.1-0.9,0.6-1
			c4.2-1.1,8-2.5,11.2-4.1C52.7,25.6,53.1,25.8,53.3,26.2z"/>
		<path d="M49.2,11.6l2.4,0.4c-0.2,1.3-0.7,2.5-1.4,3.5c-0.2,0.3-0.4,0.6-0.7,0.9c1,0.8,1.6,1.9,1.6,3.2c0,2.3-1.9,4.1-4.2,4.1
			c-1.9,0-3.5-1.3-4-3c-1.2,0.5-2.3,0.8-3.5,1.2c-2.8,0.9-5.5,1.8-7.7,3.5c-1.6,1.3-2.9,3.4-3.5,5.7c-0.1,0.4-0.2,0.9-0.3,1.3
			c1.3-0.1,3.5-0.4,6.2-0.9c0.4-0.1,0.9,0.2,0.9,0.7c0.1,0.4-0.2,0.8-0.7,0.9c-3,0.5-5.3,0.8-6.6,0.9c0,0.6,0,1.2,0.1,1.7
			c0,0.1,0.1,0.4,0.2,0.7c1.6,0.3,2.9,1.6,3.2,3.2v1.6c-0.4,1.9-2,3.3-4.1,3.3c-0.7,0-1.3-0.2-1.9-0.5c-2.4,2.4-3.7,5.5-3.9,7.8
			c0,0.4,0,0.8,0,1.3L19,53.4c-0.1-0.6-0.1-1.1,0-1.6c0.2-2.9,1.8-6.5,4.6-9.3c-0.3-0.6-0.5-1.2-0.5-2c0-1.7,1.1-3.2,2.6-3.8
			c-0.1-0.4-0.1-0.6-0.1-0.6c-0.2-1.8-0.1-3.8,0.4-5.6c0.8-2.8,2.3-5.3,4.3-6.9c0.1-0.1,0.3-0.2,0.4-0.3c-0.2-0.5-0.3-1-0.3-1.6
			c0-2.3,1.9-4.2,4.2-4.2c1.6,0,3,0.9,3.7,2.3c0.2-0.1,0.4-0.1,0.5-0.2c1.5-0.5,3-1,4.4-1.6c0.6-1.5,2.1-2.6,3.8-2.6
			c0,0,0.1,0,0.2,0c0.4-0.4,0.8-0.8,1.1-1.3C48.7,13.4,49,12.5,49.2,11.6z"/>
		<path class="st1" d="M51.2,69.2l-1.6,2.3c-0.6,0-1,0.5-1,1V85c0,0.5,0.4,1,1,1v2.7c-4.3,0-7.8-0.4-10.4-0.8l0.5-2.7
			c0.1,0,0.1,0,0.2,0H40c0.5-0.1,0.9-0.6,0.9-1.1l-1.6-12.4c-0.1-0.5-0.5-0.9-1-0.9l1.2-1.9c1.1,0.5,2.4,1,4,1.1c0.2,0,0.4,0,0.6,0
			c2.6,0,4.5-0.9,5.7-1.7C50,68.6,50.6,68.9,51.2,69.2z"/>
		<path d="M50.6,72.5V85c0,0.5-0.5,1-1,1c-0.6,0-1-0.5-1-1V72.5c0-0.5,0.4-1,1-1C50.1,71.5,50.6,71.9,50.6,72.5z"/>
		<circle cx="39" cy="47.8" r="4.2"/>
		<path d="M40.7,84.1c0.1,0.6-0.3,1.1-0.9,1.1h-0.1c-0.1,0-0.1,0-0.2,0c-0.4-0.1-0.8-0.4-0.8-0.8L37.2,72c-0.1-0.5,0.3-1,0.9-1.1
			h0.1c0.5,0,0.9,0.4,1,0.9L40.7,84.1z"/>
		<path class="st1" d="M39.6,85.2l-0.5,2.7c-4-0.7-6.2-1.7-7-2.1l-4.6-18.7c0.9,0.5,1.9,1,3.2,1.3c2.9,0.7,5.2-0.1,6.6-0.8
			c0.5,0.4,1.2,0.9,2,1.3l-1.2,1.9H38c-0.5,0.1-0.9,0.6-0.9,1.1l1.6,12.4C38.8,84.8,39.2,85.1,39.6,85.2z"/>
		<g>
			<circle class="st2" cx="39" cy="47.8" r="4.2"/>
			<path class="st2" d="M66.1,43.7c2.3,0,4.2-1.9,4.2-4.1c0-2.3-1.9-4.2-4.2-4.2c-2.3,0-4.1,1.9-4.1,4.2
				C61.9,41.9,63.8,43.7,66.1,43.7z"/>
		</g>
		<polygon points="21.3,53.1 21.9,56.3 19.9,56.8 19,53.4 		"/>
	</g>
</g>
</svg>
